<svg id="eGIWKBJ732D1" xmlns="http://www.w3.org/2000/svg" xmlns:xlink="http://www.w3.org/1999/xlink" viewBox="0 0 58 148" shape-rendering="geometricPrecision" text-rendering="geometricPrecision"><g id="eGIWKBJ732D2" clip-path="url(#eGIWKBJ732D16)"><g id="eGIWKBJ732D3"><path id="eGIWKBJ732D4" d="M17.1695,42.1925C7.8382,46.2907,4.85217,56.6293,4.19898,66.409C3.45247,76.0025,3.54578,85.7822,3.26584,95.3757C2.9859,104.783,2.33271,114.283,2.51934,123.783C2.61265,128.999,3.35916,134.495,6.99838,138.686C9.70447,141.853,13.5303,143.809,17.4495,144.74C25.8477,146.696,34.3392,144.088,42.1775,141.573C46.2833,140.269,50.7624,138.686,53.0952,134.681C55.0548,131.328,55.0548,127.043,54.9615,123.132C54.7749,113.259,54.4016,103.479,53.935,93.606C53.4685,83.9194,52.8153,74.326,51.8821,64.6394C51.2289,57.0019,50.8557,46.0113,43.1107,42.5651C34.2459,40.7954,25.5678,38.5601,17.1695,42.1925ZM10.9175,53.09C10.6376,51.9723,11.5707,50.9477,12.1306,50.1095C12.6905,49.3643,13.3437,48.1535,14.4635,48.3398C16.7963,48.8055,13.437,53.8351,12.0373,53.9282C11.3841,53.9282,11.0109,53.6488,10.9175,53.09ZM7.55826,60.6343C7.93152,59.3304,8.58471,57.2813,9.98441,56.8156C10.2644,56.7224,10.5443,56.9087,10.6376,57.1881C11.0109,58.399,10.2644,59.9823,9.98441,61.1932C9.61116,62.5903,9.8911,64.4531,9.2379,65.757C8.86465,66.5953,7.74489,66.6884,7.27832,65.757C6.53181,64.1737,7.18501,62.1246,7.55826,60.6343Z" fill="rgb(234,194,145)" stroke="none" stroke-width="1"/><path id="eGIWKBJ732D5" d="M13.6236,34.555C11.664,36.0453,10.2643,38.1875,10.0777,40.7955C9.98441,41.82,10.3577,42.9377,10.5443,43.9622C11.7574,42.8445,13.1571,41.82,14.6501,40.9817C14.1835,40.8886,13.8103,40.6092,13.7169,40.1435C13.5303,39.3983,13.7169,38.7464,13.9036,38.0944C13.9969,37.4424,14.1835,36.7904,14.5568,36.2316C14.8367,35.859,15.5832,35.859,15.7698,36.4179C16.0498,37.163,16.0498,37.815,15.9565,38.5601C15.8631,39.3052,15.8631,40.0503,15.4899,40.7023C16.703,40.1435,17.916,39.5846,19.3157,39.2121C26.5009,37.163,34.4325,38.1875,41.8043,40.516C43.5772,40.516,45.0702,40.9817,46.3766,41.82C46.6566,40.1435,47.1231,38.8395,46.3766,36.9767C45.4435,34.6482,43.5772,33.1579,41.431,32.2265C37.3252,30.4569,32.2863,30.4569,27.9939,30.7363C23.0483,30.8294,17.4495,31.5746,13.6236,34.555ZM21.8352,34.555C22.0218,35.1139,21.9285,35.6727,21.8352,36.2316C21.7419,36.8836,21.7419,37.5355,20.9954,37.9081C20.6221,38.0944,20.1556,37.9081,19.8756,37.6287C19.4091,37.0698,19.5957,36.4179,19.689,35.7659C19.7823,35.207,19.8756,34.555,20.2489,34.0893C20.7154,33.4374,21.5553,33.8099,21.8352,34.555ZM28.0872,35.859C27.9006,36.6041,26.5942,36.511,26.5009,35.6727C26.4076,34.4619,26.5942,33.0648,27.434,32.1334C27.6206,31.9471,27.8073,31.9471,27.9006,32.2265C28.5538,33.2511,28.4605,34.6482,28.0872,35.859ZM40.3113,37.163C40.4979,36.6973,40.6845,36.2316,40.8711,35.6727C40.9645,35.3933,40.9645,35.0208,41.0578,34.7413C41.1511,34.555,41.3377,34.3688,41.431,34.1825C41.5243,33.9031,41.8043,33.9031,41.9909,34.0893C42.1775,34.2756,42.4575,34.3688,42.5508,34.6482C42.7374,35.0208,42.8307,35.3933,42.8307,35.7659C42.8307,36.511,42.7374,37.2561,42.4575,37.9081C42.1775,38.4669,41.711,38.7464,41.0578,38.5601C40.4979,38.3738,40.1246,37.6287,40.3113,37.163ZM35.5523,33.9031C35.7389,33.3442,36.1122,32.2265,36.8587,32.3197C37.6052,32.4128,37.5119,33.8099,37.4185,34.2756C37.3252,34.7413,37.2319,35.3002,37.1386,35.7659C37.0453,36.2316,36.952,36.6973,36.4854,36.9767C36.0188,37.2561,35.459,37.163,35.0857,36.6041C34.7125,35.7659,35.2723,34.6482,35.5523,33.9031ZM30.9799,35.7659C31.0732,35.1139,31.3532,34.4619,31.4465,33.8099C31.5398,33.0648,31.7264,32.5991,32.3796,32.2265C32.5662,32.1334,32.8462,32.4128,32.9395,32.506C33.3128,32.8785,33.4061,33.3442,33.4061,33.9031C33.3128,34.7413,33.1261,35.859,32.6596,36.4179C32.0997,37.163,30.8866,36.7904,30.9799,35.7659Z" fill="rgb(202,147,69)" stroke="none" stroke-width="1"/><path id="eGIWKBJ732D6" d="M29.6736,2.32846C25.2879,2.79416,23.6083,8.01002,24.0748,11.9219C24.4481,15.5544,26.5943,18.8143,26.7809,22.4468C26.7809,22.5399,26.7809,22.5399,26.6876,22.6331C27.0609,22.7262,27.1542,23.285,26.8742,23.5645C25.2879,24.589,23.5149,25.0547,22.1152,26.3587C21.3687,27.1038,20.8089,28.0352,20.3423,28.9666C23.235,28.3146,26.3143,28.0352,29.0204,27.9421C32.1931,27.8489,35.8323,27.8489,39.2849,28.6872C39.2849,28.5009,39.2849,28.3146,39.1916,28.0352C38.9117,27.1038,38.1651,26.4518,37.4186,25.9861C36.0189,25.0547,33.7794,24.6821,33.0329,23.0056C32.9396,22.8193,33.0329,22.6331,33.1262,22.5399C33.0329,22.4468,33.0329,22.3536,33.0329,22.1673C33.1262,17.5103,39.2849,1.30391,29.6736,2.32846Z" fill="rgb(239,216,96)" stroke="none" stroke-width="1"/><path id="eGIWKBJ732D7" d="M37.4183,7.26505C37.0451,2.98059,33.8724,-0.27932,29.6733,0.000101C19.3155,0.652084,20.2487,16.6722,26.1274,22.5401C23.9812,22.1675,22.0216,23.5646,20.6219,24.9617C19.5955,25.9863,18.2891,27.7559,18.1958,29.5256C15.303,30.457,12.597,31.9472,10.7307,34.1826C9.05105,36.1386,8.0246,38.7465,8.11791,41.3544C8.11791,42.5652,8.39785,44.2418,9.23767,45.1732C6.25164,48.4331,4.19875,52.7175,3.07899,57.4677C0.652837,67.8063,1.30603,79.1694,1.02609,89.7874C0.652837,101.337,-0.186984,113.072,0.092956,124.622C0.279583,133.563,3.63887,141.294,11.8504,145.392C20.342,149.583,29.6733,148,38.1648,145.578C46.0032,143.343,54.8679,140.921,56.8275,131.607C57.854,126.764,57.3874,121.641,57.2008,116.705C57.0141,111.303,56.8275,105.808,56.6409,100.405C56.081,87.3657,55.2412,74.4192,54.0281,61.4727C53.5616,56.0706,52.2552,47.5017,47.9627,43.1241C51.0421,40.7024,48.336,34.3689,46.0032,32.1335C44.6968,30.9227,43.2038,30.0844,41.6174,29.4324C41.8974,28.1285,41.0576,26.2657,40.311,25.3343C39.1913,24.0303,36.3919,22.2606,34.339,22.2606C36.9518,18.535,37.7916,11.7358,37.4183,7.26505ZM51.6953,64.7326C52.5351,74.3261,53.1883,84.0127,53.7482,93.6993C54.2147,103.572,54.6813,113.352,54.7746,123.225C54.8679,127.137,54.8679,131.328,52.9084,134.774C50.6688,138.779,46.0965,140.363,41.9907,141.667C34.1524,144.181,25.6608,146.789,17.2626,144.833C13.3435,143.902,9.51761,141.946,6.81152,138.779C3.1723,134.681,2.42579,129.186,2.33248,123.877C2.23917,114.47,2.79905,104.969,3.07899,95.4689C3.35893,85.7823,3.35893,76.0958,4.01212,66.5023C4.75863,56.7226,7.65134,46.384,16.9827,42.2858C25.3809,38.5602,34.059,40.7956,42.7372,42.6584C50.6688,46.1046,51.0421,57.002,51.6953,64.7326ZM46.1898,36.6974C46.9363,38.5602,46.3764,39.9573,46.1898,41.5407C44.8834,40.7024,43.3904,40.2367,41.6174,40.2367C34.2457,38.0014,26.314,36.9768,19.1289,38.9328C17.7292,39.3053,16.5161,39.8642,15.303,40.423C15.6763,39.771,15.6763,39.0259,15.7696,38.2808C15.8629,37.5357,15.8629,36.8837,15.583,36.1386C15.3964,35.5797,14.6499,35.5797,14.3699,35.9523C13.9033,36.5111,13.81,37.1631,13.7167,37.8151C13.6234,38.4671,13.4368,39.2122,13.5301,39.8642C13.6234,40.3299,14.09,40.7024,14.4632,40.7024C12.9702,41.5407,11.5705,42.5652,10.3574,43.6829C10.1708,42.6584,9.79755,41.6338,9.89087,40.5161C10.0775,37.9082,11.4772,35.766,13.4368,34.2757C17.3559,31.2953,22.8614,30.5501,27.7137,30.2707C32.0061,29.9913,37.0451,29.9913,41.1509,31.761C43.4837,32.9718,45.35,34.462,46.1898,36.6974ZM39.098,27.9422C39.1913,28.1285,39.1913,28.3148,39.1913,28.5942C35.832,27.7559,32.0995,27.7559,28.9268,27.8491C26.2207,27.9422,23.1414,28.2216,20.2487,28.8736C20.8085,27.9422,21.2751,27.0108,22.0216,26.2657C23.4213,24.9617,25.2876,24.496,26.7806,23.4715C27.0605,23.2852,26.9672,22.7263,26.594,22.5401C26.594,22.4469,26.6873,22.4469,26.6873,22.3538C26.5007,18.8144,24.2611,15.4614,23.9812,11.8289C23.6079,8.01017,25.1943,2.79431,29.6733,2.32861C39.2846,1.30407,33.1259,17.5105,33.0326,22.0744C33.0326,22.1675,33.0326,22.3538,33.1259,22.4469C32.9393,22.5401,32.9393,22.7263,33.0326,22.9126C33.6858,24.5892,36.0186,25.0549,37.4183,25.8931C38.0715,26.452,38.818,27.1039,39.098,27.9422Z" fill="rgb(63,36,9)" stroke="none" stroke-width="1"/><path id="eGIWKBJ732D8" d="M14.4636,48.3399C13.3438,48.1536,12.6906,49.3644,12.1307,50.1096C11.5709,50.9478,10.6377,51.9724,10.9177,53.0901C11.1043,53.6489,11.4776,53.9283,12.0374,53.9283C13.4371,53.8352,16.7964,48.8056,14.4636,48.3399Z" fill="rgb(255,255,255)" stroke="none" stroke-width="1"/><path id="eGIWKBJ732D9" d="M9.9844,56.8156C8.5847,57.2813,7.83819,59.3304,7.55825,60.6343C7.185,62.1246,6.62512,64.2668,7.37162,65.7571C7.83819,66.6885,8.86464,66.5022,9.33121,65.7571C9.9844,64.4531,9.79777,62.5903,10.0777,61.1932C10.3577,59.9823,11.0108,58.399,10.7309,57.1881C10.451,56.8156,10.2643,56.7224,9.9844,56.8156Z" fill="rgb(255,255,255)" stroke="none" stroke-width="1"/><path id="eGIWKBJ732D10" d="M41.8977,34.0893C41.7111,33.903,41.4311,33.903,41.3378,34.1824C41.2445,34.3687,41.0579,34.555,40.9646,34.7413C40.8713,35.0207,40.8713,35.3001,40.7779,35.6727C40.6846,36.2315,40.498,36.6972,40.2181,37.1629C39.9381,37.7218,40.4047,38.3738,40.8713,38.56C41.4311,38.8395,41.991,38.4669,42.271,37.9081C42.5509,37.2561,42.7375,36.5109,42.6442,35.7658C42.6442,35.3933,42.5509,34.9276,42.3643,34.6481C42.3643,34.3687,42.0843,34.2756,41.8977,34.0893Z" fill="rgb(63,36,9)" stroke="none" stroke-width="1"/><path id="eGIWKBJ732D11" d="M36.8586,32.3197C36.1121,32.2265,35.7388,33.3442,35.5522,33.9031C35.2723,34.7413,34.7124,35.859,35.179,36.6973C35.4589,37.2561,36.0188,37.3493,36.5787,37.0698C37.0452,36.7904,37.1386,36.3247,37.2319,35.859C37.3252,35.3933,37.4185,34.8345,37.5118,34.3688C37.4185,33.8099,37.6051,32.3197,36.8586,32.3197Z" fill="rgb(63,36,9)" stroke="none" stroke-width="1"/><path id="eGIWKBJ732D12" d="M33.0328,32.5991C32.8462,32.5059,32.6595,32.2265,32.4729,32.3196C31.8197,32.6922,31.6331,33.1579,31.5398,33.903C31.4465,34.555,31.1665,35.1139,31.0732,35.859C30.9799,36.8835,32.193,37.2561,32.7528,36.511C33.2194,35.859,33.4994,34.7413,33.4994,33.9962C33.4994,33.4373,33.406,32.8785,33.0328,32.5991Z" fill="rgb(63,36,9)" stroke="none" stroke-width="1"/><path id="eGIWKBJ732D13" d="M27.4341,32.0403C26.6876,32.9717,26.501,34.3688,26.501,35.5796C26.501,36.4179,27.8074,36.511,28.0873,35.7659C28.3672,34.5551,28.4606,33.158,27.9007,32.0403C27.9007,31.9471,27.6207,31.854,27.4341,32.0403Z" fill="rgb(63,36,9)" stroke="none" stroke-width="1"/><path id="eGIWKBJ732D14" d="M20.249,34.0894C19.9691,34.5551,19.7825,35.2071,19.6892,35.7659C19.5958,36.4179,19.4092,37.0699,19.8758,37.6287C20.1557,37.9081,20.6223,38.0944,20.9955,37.9081C21.6487,37.5356,21.742,36.9767,21.8354,36.2316C21.9287,35.6728,21.9287,35.0208,21.8354,34.5551C21.5554,33.81,20.7156,33.4374,20.249,34.0894Z" fill="rgb(63,36,9)" stroke="none" stroke-width="1"/><path id="eGIWKBJ732D15" d="M50.5296,128.758L50.5201,128.797L50.5136,128.836C50.3561,129.78,49.9976,131.285,49.4451,132.682C49.1692,133.38,48.8545,134.026,48.5077,134.555C48.1555,135.091,47.8069,135.45,47.4855,135.643C46.3299,136.336,43.037,137.808,39.005,139.111C34.9981,140.406,30.3915,141.489,26.5584,141.5C23.8049,141.17,19.6005,140.219,15.9073,138.448C12.1476,136.646,9.1798,134.125,8.47852,130.794C7.99991,128.521,7.62502,123.33,7.41354,116.578C7.20319,109.862,7.15632,101.692,7.31229,93.5192C7.46829,85.3448,7.82695,77.1825,8.42569,70.4797C8.72514,67.1275,9.0835,64.1534,9.5038,61.7316C9.9284,59.2851,10.403,57.4853,10.9037,56.4282C12.6333,52.7768,17.1487,48.9142,22.4895,46.5822C27.8309,44.2499,33.6704,43.5882,38.0343,45.885C42.6316,48.3047,44.8393,50.9149,45.9181,53.0723C46.9987,55.2336,47,57.0414,47,58.0001C47,58.5532,47.303,63.6618,47.7323,70.8995C48.1082,77.2373,48.581,85.2077,49.0319,93.1815C49.5161,101.743,49.9766,110.332,50.2694,116.966C50.4159,120.284,50.5201,123.107,50.5644,125.191C50.5866,126.234,50.5937,127.084,50.584,127.715C50.5791,128.031,50.5702,128.283,50.5578,128.473C50.5448,128.672,50.5308,128.752,50.5297,128.758L50.5296,128.758Z" transform="matrix(1 0 0 0.052925 0.09585 128.616119)" fill="rgb(255,255,255)" stroke="rgb(63,36,9)" stroke-width="2"/></g><clipPath id="eGIWKBJ732D16"><rect id="eGIWKBJ732D17" width="57.3878" height="148" rx="0" ry="0" fill="rgb(255,255,255)" stroke="none" stroke-width="1"/></clipPath></g><script><![CDATA[!function(t,n){"object"==typeof exports&&"undefined"!=typeof module?module.exports=n():"function"==typeof define&&define.amd?define(n):((t="undefined"!=typeof globalThis?globalThis:t||self).__SVGATOR_PLAYER__=t.__SVGATOR_PLAYER__||{},t.__SVGATOR_PLAYER__["5c7f360c"]=n())}(this,(function(){"use strict";function t(t,n){var r=Object.keys(t);if(Object.getOwnPropertySymbols){var e=Object.getOwnPropertySymbols(t);n&&(e=e.filter((function(n){return Object.getOwnPropertyDescriptor(t,n).enumerable}))),r.push.apply(r,e)}return r}function n(n){for(var r=1;r<arguments.length;r++){var e=null!=arguments[r]?arguments[r]:{};r%2?t(Object(e),!0).forEach((function(t){u(n,t,e[t])})):Object.getOwnPropertyDescriptors?Object.defineProperties(n,Object.getOwnPropertyDescriptors(e)):t(Object(e)).forEach((function(t){Object.defineProperty(n,t,Object.getOwnPropertyDescriptor(e,t))}))}return n}function r(t){return(r="function"==typeof Symbol&&"symbol"==typeof Symbol.iterator?function(t){return typeof t}:function(t){return t&&"function"==typeof Symbol&&t.constructor===Symbol&&t!==Symbol.prototype?"symbol":typeof t})(t)}function e(t,n){if(!(t instanceof n))throw new TypeError("Cannot call a class as a function")}function i(t,n){for(var r=0;r<n.length;r++){var e=n[r];e.enumerable=e.enumerable||!1,e.configurable=!0,"value"in e&&(e.writable=!0),Object.defineProperty(t,e.key,e)}}function o(t,n,r){return n&&i(t.prototype,n),r&&i(t,r),t}function u(t,n,r){return n in t?Object.defineProperty(t,n,{value:r,enumerable:!0,configurable:!0,writable:!0}):t[n]=r,t}function a(t){return(a=Object.setPrototypeOf?Object.getPrototypeOf:function(t){return t.__proto__||Object.getPrototypeOf(t)})(t)}function l(t,n){return(l=Object.setPrototypeOf||function(t,n){return t.__proto__=n,t})(t,n)}function f(){if("undefined"==typeof Reflect||!Reflect.construct)return!1;if(Reflect.construct.sham)return!1;if("function"==typeof Proxy)return!0;try{return Boolean.prototype.valueOf.call(Reflect.construct(Boolean,[],(function(){}))),!0}catch(t){return!1}}function s(t,n,r){return(s=f()?Reflect.construct:function(t,n,r){var e=[null];e.push.apply(e,n);var i=new(Function.bind.apply(t,e));return r&&l(i,r.prototype),i}).apply(null,arguments)}function c(t,n){if(n&&("object"==typeof n||"function"==typeof n))return n;if(void 0!==n)throw new TypeError("Derived constructors may only return object or undefined");return function(t){if(void 0===t)throw new ReferenceError("this hasn't been initialised - super() hasn't been called");return t}(t)}function h(t,n,r){return(h="undefined"!=typeof Reflect&&Reflect.get?Reflect.get:function(t,n,r){var e=function(t,n){for(;!Object.prototype.hasOwnProperty.call(t,n)&&null!==(t=a(t)););return t}(t,n);if(e){var i=Object.getOwnPropertyDescriptor(e,n);return i.get?i.get.call(r):i.value}})(t,n,r||t)}function v(t){return function(t){if(Array.isArray(t))return y(t)}(t)||function(t){if("undefined"!=typeof Symbol&&null!=t[Symbol.iterator]||null!=t["@@iterator"])return Array.from(t)}(t)||function(t,n){if(!t)return;if("string"==typeof t)return y(t,n);var r=Object.prototype.toString.call(t).slice(8,-1);"Object"===r&&t.constructor&&(r=t.constructor.name);if("Map"===r||"Set"===r)return Array.from(t);if("Arguments"===r||/^(?:Ui|I)nt(?:8|16|32)(?:Clamped)?Array$/.test(r))return y(t,n)}(t)||function(){throw new TypeError("Invalid attempt to spread non-iterable instance.\nIn order to be iterable, non-array objects must have a [Symbol.iterator]() method.")}()}function y(t,n){(null==n||n>t.length)&&(n=t.length);for(var r=0,e=new Array(n);r<n;r++)e[r]=t[r];return e}var g=d(Math.pow(10,-6));function d(t){var n=arguments.length>1&&void 0!==arguments[1]?arguments[1]:6;if(Number.isInteger(t))return t;var r=Math.pow(10,n);return Math.round((+t+Number.EPSILON)*r)/r}function p(t,n){var r=arguments.length>2&&void 0!==arguments[2]?arguments[2]:g;return Math.abs(t-n)<r}var m=Math.PI/180;function b(t){return t}function w(t,n,r){var e=1-r;return 3*r*e*(t*e+n*r)+r*r*r}function x(){var t=arguments.length>0&&void 0!==arguments[0]?arguments[0]:0,n=arguments.length>1&&void 0!==arguments[1]?arguments[1]:0,r=arguments.length>2&&void 0!==arguments[2]?arguments[2]:1,e=arguments.length>3&&void 0!==arguments[3]?arguments[3]:1;return t<0||t>1||r<0||r>1?null:p(t,n)&&p(r,e)?b:function(i){if(i<=0)return t>0?i*n/t:0===n&&r>0?i*e/r:0;if(i>=1)return r<1?1+(i-1)*(e-1)/(r-1):1===r&&t<1?1+(i-1)*(n-1)/(t-1):1;for(var o,u=0,a=1;u<a;){var l=w(t,r,o=(u+a)/2);if(p(i,l))break;l<i?u=o:a=o}return w(n,e,o)}}function A(){return 1}function k(t){return 1===t?1:0}function S(){var t=arguments.length>0&&void 0!==arguments[0]?arguments[0]:1,n=arguments.length>1&&void 0!==arguments[1]?arguments[1]:0;if(1===t){if(0===n)return k;if(1===n)return A}var r=1/t;return function(t){return t>=1?1:(t+=n*r)-t%r}}var _=Math.sin,O=Math.cos,j=Math.acos,M=Math.asin,P=Math.tan,E=Math.atan2,I=Math.PI/180,R=180/Math.PI,F=Math.sqrt,N=function(){function t(){var n=arguments.length>0&&void 0!==arguments[0]?arguments[0]:1,r=arguments.length>1&&void 0!==arguments[1]?arguments[1]:0,i=arguments.length>2&&void 0!==arguments[2]?arguments[2]:0,o=arguments.length>3&&void 0!==arguments[3]?arguments[3]:1,u=arguments.length>4&&void 0!==arguments[4]?arguments[4]:0,a=arguments.length>5&&void 0!==arguments[5]?arguments[5]:0;e(this,t),this.m=[n,r,i,o,u,a],this.i=null,this.w=null,this.s=null}return o(t,[{key:"determinant",get:function(){var t=this.m;return t[0]*t[3]-t[1]*t[2]}},{key:"isIdentity",get:function(){if(null===this.i){var t=this.m;this.i=1===t[0]&&0===t[1]&&0===t[2]&&1===t[3]&&0===t[4]&&0===t[5]}return this.i}},{key:"point",value:function(t,n){var r=this.m;return{x:r[0]*t+r[2]*n+r[4],y:r[1]*t+r[3]*n+r[5]}}},{key:"translateSelf",value:function(){var t=arguments.length>0&&void 0!==arguments[0]?arguments[0]:0,n=arguments.length>1&&void 0!==arguments[1]?arguments[1]:0;if(!t&&!n)return this;var r=this.m;return r[4]+=r[0]*t+r[2]*n,r[5]+=r[1]*t+r[3]*n,this.w=this.s=this.i=null,this}},{key:"rotateSelf",value:function(){var t=arguments.length>0&&void 0!==arguments[0]?arguments[0]:0;if(t%=360){var n=_(t*=I),r=O(t),e=this.m,i=e[0],o=e[1];e[0]=i*r+e[2]*n,e[1]=o*r+e[3]*n,e[2]=e[2]*r-i*n,e[3]=e[3]*r-o*n,this.w=this.s=this.i=null}return this}},{key:"scaleSelf",value:function(){var t=arguments.length>0&&void 0!==arguments[0]?arguments[0]:1,n=arguments.length>1&&void 0!==arguments[1]?arguments[1]:1;if(1!==t||1!==n){var r=this.m;r[0]*=t,r[1]*=t,r[2]*=n,r[3]*=n,this.w=this.s=this.i=null}return this}},{key:"skewSelf",value:function(t,n){if(n%=360,(t%=360)||n){var r=this.m,e=r[0],i=r[1],o=r[2],u=r[3];t&&(t=P(t*I),r[2]+=e*t,r[3]+=i*t),n&&(n=P(n*I),r[0]+=o*n,r[1]+=u*n),this.w=this.s=this.i=null}return this}},{key:"resetSelf",value:function(){var t=arguments.length>0&&void 0!==arguments[0]?arguments[0]:1,n=arguments.length>1&&void 0!==arguments[1]?arguments[1]:0,r=arguments.length>2&&void 0!==arguments[2]?arguments[2]:0,e=arguments.length>3&&void 0!==arguments[3]?arguments[3]:1,i=arguments.length>4&&void 0!==arguments[4]?arguments[4]:0,o=arguments.length>5&&void 0!==arguments[5]?arguments[5]:0,u=this.m;return u[0]=t,u[1]=n,u[2]=r,u[3]=e,u[4]=i,u[5]=o,this.w=this.s=this.i=null,this}},{key:"recomposeSelf",value:function(){var t=arguments.length>0&&void 0!==arguments[0]?arguments[0]:null,n=arguments.length>1&&void 0!==arguments[1]?arguments[1]:null,r=arguments.length>2&&void 0!==arguments[2]?arguments[2]:null,e=arguments.length>3&&void 0!==arguments[3]?arguments[3]:null,i=arguments.length>4&&void 0!==arguments[4]?arguments[4]:null;return this.isIdentity||this.resetSelf(),t&&(t.x||t.y)&&this.translateSelf(t.x,t.y),n&&this.rotateSelf(n),r&&(r.x&&this.skewSelf(r.x,0),r.y&&this.skewSelf(0,r.y)),!e||1===e.x&&1===e.y||this.scaleSelf(e.x,e.y),i&&(i.x||i.y)&&this.translateSelf(i.x,i.y),this}},{key:"decompose",value:function(){var t=arguments.length>0&&void 0!==arguments[0]?arguments[0]:0,n=arguments.length>1&&void 0!==arguments[1]?arguments[1]:0,r=this.m,e=r[0]*r[0]+r[1]*r[1],i=[[r[0],r[1]],[r[2],r[3]]],o=F(e);if(0===o)return{origin:{x:d(r[4]),y:d(r[5])},translate:{x:d(t),y:d(n)},scale:{x:0,y:0},skew:{x:0,y:0},rotate:0};i[0][0]/=o,i[0][1]/=o;var u=r[0]*r[3]-r[1]*r[2]<0;u&&(o=-o);var a=i[0][0]*i[1][0]+i[0][1]*i[1][1];i[1][0]-=i[0][0]*a,i[1][1]-=i[0][1]*a;var l=F(i[1][0]*i[1][0]+i[1][1]*i[1][1]);if(0===l)return{origin:{x:d(r[4]),y:d(r[5])},translate:{x:d(t),y:d(n)},scale:{x:d(o),y:0},skew:{x:0,y:0},rotate:0};i[1][0]/=l,i[1][1]/=l,a/=l;var f=0;return i[1][1]<0?(f=j(i[1][1])*R,i[0][1]<0&&(f=360-f)):f=M(i[0][1])*R,u&&(f=-f),a=E(a,F(i[0][0]*i[0][0]+i[0][1]*i[0][1]))*R,u&&(a=-a),{origin:{x:d(r[4]),y:d(r[5])},translate:{x:d(t),y:d(n)},scale:{x:d(o),y:d(l)},skew:{x:d(a),y:0},rotate:d(f)}}},{key:"clone",value:function(){var t=this.m;return new this.constructor(t[0],t[1],t[2],t[3],t[4],t[5])}},{key:"toString",value:function(){var t=arguments.length>0&&void 0!==arguments[0]?arguments[0]:" ";return null===this.s&&(this.s="matrix("+this.m.map((function(t){return d(t)})).join(t)+")"),this.s}}],[{key:"create",value:function(t){return t?Array.isArray(t)?s(this,v(t)):t instanceof this?t.clone():(new this).recomposeSelf(t.origin,t.rotate,t.skew,t.scale,t.translate):new this}}]),t}();function T(t,n,r){return t>=.5?r:n}function B(t,n,r){return 0===t||n===r?n:t*(r-n)+n}function q(t,n,r){var e=B(t,n,r);return e<=0?0:e}function L(t,n,r){var e=B(t,n,r);return e<=0?0:e>=1?1:e}function C(t,n,r){return 0===t?n:1===t?r:{x:B(t,n.x,r.x),y:B(t,n.y,r.y)}}function D(t,n,r){var e=function(t,n,r){return Math.round(B(t,n,r))}(t,n,r);return e<=0?0:e>=255?255:e}function z(t,n,r){return 0===t?n:1===t?r:{r:D(t,n.r,r.r),g:D(t,n.g,r.g),b:D(t,n.b,r.b),a:B(t,null==n.a?1:n.a,null==r.a?1:r.a)}}function V(t,n){for(var r=[],e=0;e<t;e++)r.push(n);return r}function G(t,n){if(--n<=0)return t;var r=(t=Object.assign([],t)).length;do{for(var e=0;e<r;e++)t.push(t[e])}while(--n>0);return t}var Y,$=function(){function t(n){e(this,t),this.list=n,this.length=n.length}return o(t,[{key:"setAttribute",value:function(t,n){for(var r=this.list,e=0;e<this.length;e++)r[e].setAttribute(t,n)}},{key:"removeAttribute",value:function(t){for(var n=this.list,r=0;r<this.length;r++)n[r].removeAttribute(t)}},{key:"style",value:function(t,n){for(var r=this.list,e=0;e<this.length;e++)r[e].style[t]=n}}]),t}(),U=/-./g,Q=function(t,n){return n.toUpperCase()};function H(t){return"function"==typeof t?t:T}function J(t){return t?"function"==typeof t?t:Array.isArray(t)?function(t){var n=arguments.length>1&&void 0!==arguments[1]?arguments[1]:b;if(!Array.isArray(t))return n;switch(t.length){case 1:return S(t[0])||n;case 2:return S(t[0],t[1])||n;case 4:return x(t[0],t[1],t[2],t[3])||n}return n}(t,null):function(t,n){var r=arguments.length>2&&void 0!==arguments[2]?arguments[2]:b;switch(t){case"linear":return b;case"steps":return S(n.steps||1,n.jump||0)||r;case"bezier":case"cubic-bezier":return x(n.x1||0,n.y1||0,n.x2||0,n.y2||0)||r}return r}(t.type,t.value,null):null}function Z(t,n,r){var e=arguments.length>3&&void 0!==arguments[3]&&arguments[3],i=n.length-1;if(t<=n[0].t)return e?[0,0,n[0].v]:n[0].v;if(t>=n[i].t)return e?[i,1,n[i].v]:n[i].v;var o,u=n[0],a=null;for(o=1;o<=i;o++){if(!(t>n[o].t)){a=n[o];break}u=n[o]}return null==a?e?[i,1,n[i].v]:n[i].v:u.t===a.t?e?[o,1,a.v]:a.v:(t=(t-u.t)/(a.t-u.t),u.e&&(t=u.e(t)),e?[o,t,r(t,u.v,a.v)]:r(t,u.v,a.v))}function K(t,n){var r=arguments.length>2&&void 0!==arguments[2]?arguments[2]:null;return t&&t.length?"function"!=typeof n?null:("function"!=typeof r&&(r=null),function(e){var i=Z(e,t,n);return null!=i&&r&&(i=r(i)),i}):null}function W(t,n){return t.t-n.t}function X(t,n,e,i,o){var u,a="@"===e[0],l="#"===e[0],f=Y[e],s=T;switch(a?(u=e.substr(1),e=u.replace(U,Q)):l&&(e=e.substr(1)),r(f)){case"function":if(s=f(i,o,Z,J,e,a,n,t),l)return s;break;case"string":s=K(i,H(f));break;case"object":if((s=K(i,H(f.i),f.f))&&"function"==typeof f.u)return f.u(n,s,e,a,t)}return s?function(t,n,r){if(arguments.length>3&&void 0!==arguments[3]&&arguments[3])return t instanceof $?function(e){return t.style(n,r(e))}:function(e){return t.style[n]=r(e)};if(Array.isArray(n)){var e=n.length;return function(i){var o=r(i);if(null==o)for(var u=0;u<e;u++)t[u].removeAttribute(n);else for(var a=0;a<e;a++)t[a].setAttribute(n,o)}}return function(e){var i=r(e);null==i?t.removeAttribute(n):t.setAttribute(n,i)}}(n,e,s,a):null}function tt(t,n,e,i){if(!i||"object"!==r(i))return null;var o=null,u=null;return Array.isArray(i)?u=function(t){if(!t||!t.length)return null;for(var n=0;n<t.length;n++)t[n].e&&(t[n].e=J(t[n].e));return t.sort(W)}(i):(u=i.keys,o=i.data||null),u?X(t,n,e,u,o):null}function nt(t,n,r){if(!r)return null;var e=[];for(var i in r)if(r.hasOwnProperty(i)){var o=tt(t,n,i,r[i]);o&&e.push(o)}return e.length?e:null}function rt(t,n){if(!n.duration||n.duration<0)return null;var r=function(t,n){if(!n)return null;var r=[];if(Array.isArray(n))for(var e=n.length,i=0;i<e;i++){var o=n[i];if(2===o.length){var u=null;if("string"==typeof o[0])u=t.getElementById(o[0]);else if(Array.isArray(o[0])){u=[];for(var a=0;a<o[0].length;a++)if("string"==typeof o[0][a]){var l=t.getElementById(o[0][a]);l&&u.push(l)}u=u.length?1===u.length?u[0]:new $(u):null}if(u){var f=nt(t,u,o[1]);f&&(r=r.concat(f))}}}else for(var s in n)if(n.hasOwnProperty(s)){var c=t.getElementById(s);if(c){var h=nt(t,c,n[s]);h&&(r=r.concat(h))}}return r.length?r:null}(t,n.elements);return r?function(t,n){var r=arguments.length>2&&void 0!==arguments[2]?arguments[2]:1/0,e=arguments.length>3&&void 0!==arguments[3]?arguments[3]:1,i=arguments.length>4&&void 0!==arguments[4]&&arguments[4],o=arguments.length>5&&void 0!==arguments[5]?arguments[5]:1,u=t.length,a=e>0?n:0;i&&r%2==0&&(a=n-a);var l=null;return function(f,s){var c=f%n,h=1+(f-c)/n;s*=e,i&&h%2==0&&(s=-s);var v=!1;if(h>r)c=a,v=!0,-1===o&&(c=e>0?0:n);else if(s<0&&(c=n-c),c===l)return!1;l=c;for(var y=0;y<u;y++)t[y](c);return v}}(r,n.duration,n.iterations||1/0,n.direction||1,!!n.alternate,n.fill||1):null}function et(t){return+("0x"+(t.replace(/[^0-9a-fA-F]+/g,"")||27))}function it(t,n,r){return!t||!r||n>t.length?t:t.substring(0,n)+it(t.substring(n+1),r,r)}function ot(t){var n=arguments.length>1&&void 0!==arguments[1]?arguments[1]:27;return!t||t%n?t%n:ot(t/n,n)}function ut(t,n,r){if(t&&t.length){var e=et(r),i=et(n),o=ot(e)+5,u=it(t,ot(e,5),o);return u=u.replace(/\x7c$/g,"==").replace(/\x2f$/g,"="),u=function(t,n,r){var e=+("0x"+t.substring(0,4));t=t.substring(4);for(var i=n%e+r%27,o=[],u=0;u<t.length;u+=2)if("|"!==t[u]){var a=+("0x"+t[u]+t[u+1])-i;o.push(a)}else{var l=+("0x"+t.substring(u+1,u+1+4))-i;u+=3,o.push(l)}return String.fromCharCode.apply(String,o)}(u=(u=atob(u)).replace(/[\x41-\x5A]/g,""),i,e),u=JSON.parse(u)}}Number.isInteger||(Number.isInteger=function(t){return"number"==typeof t&&isFinite(t)&&Math.floor(t)===t}),Number.EPSILON||(Number.EPSILON=2220446049250313e-31);var at=function(){function t(n,r){var i=arguments.length>2&&void 0!==arguments[2]?arguments[2]:{};e(this,t),this._id=0,this._running=!1,this._rollingBack=!1,this._animations=n,this.duration=r.duration,this.alternate=r.alternate,this.fill=r.fill,this.iterations=r.iterations,this.direction=i.direction||1,this.speed=i.speed||1,this.fps=i.fps||100,this.offset=i.offset||0,this.rollbackStartOffset=0}return o(t,[{key:"_rollback",value:function(){var t=this,n=1/0,r=null;this.rollbackStartOffset=this.offset,this._rollingBack||(this._rollingBack=!0,this._running=!0);this._id=window.requestAnimationFrame((function e(i){if(t._rollingBack){null==r&&(r=i);var o=i-r,u=t.rollbackStartOffset-o,a=Math.round(u*t.speed);if(a>t.duration&&n!=1/0){var l=!!t.alternate&&a/t.duration%2>1,f=a%t.duration;a=(f+=l?t.duration:0)||t.duration}var s=t.fps?1e3/t.fps:0,c=Math.max(0,a);if(c<n-s){t.offset=c,n=c;for(var h=t._animations,v=h.length,y=0;y<v;y++)h[y](c,t.direction)}var g=!1;if(t.iterations>0&&-1===t.fill){var d=t.iterations*t.duration,p=d==a;a=p?0:a,t.offset=p?0:t.offset,g=a>d}a>0&&t.offset>=a&&!g?t._id=window.requestAnimationFrame(e):t.stop()}}))}},{key:"_start",value:function(){var t=this,n=arguments.length>0&&void 0!==arguments[0]?arguments[0]:0,r=-1/0,e=null,i={},o=function o(u){t._running=!0,null==e&&(e=u);var a=Math.round((u-e+n)*t.speed),l=t.fps?1e3/t.fps:0;if(a>r+l&&!t._rollingBack){t.offset=a,r=a;for(var f=t._animations,s=f.length,c=0,h=0;h<s;h++)i[h]?c++:(i[h]=f[h](a,t.direction),i[h]&&c++);if(c===s)return void t._stop()}t._id=window.requestAnimationFrame(o)};this._id=window.requestAnimationFrame(o)}},{key:"_stop",value:function(){this._id&&window.cancelAnimationFrame(this._id),this._running=!1,this._rollingBack=!1}},{key:"play",value:function(){!this._rollingBack&&this._running||(this._rollingBack=!1,this.rollbackStartOffset>this.duration&&(this.offset=this.rollbackStartOffset-(this.rollbackStartOffset-this.offset)%this.duration,this.rollbackStartOffset=0),this._start(this.offset))}},{key:"stop",value:function(){this._stop(),this.offset=0,this.rollbackStartOffset=0;var t=this.direction,n=this._animations;window.requestAnimationFrame((function(){for(var r=0;r<n.length;r++)n[r](0,t)}))}},{key:"reachedToEnd",value:function(){return this.iterations>0&&this.offset>=this.iterations*this.duration}},{key:"restart",value:function(){this._stop(),this.offset=0,this._start()}},{key:"pause",value:function(){this._stop()}},{key:"reverse",value:function(){this.direction=-this.direction}}],[{key:"build",value:function(r,e){return delete r.animationSettings,r.options=ut(r.options,r.root,"5c7f360c"),r.animations.map((function(t){var e=ut(t.s,r.root,"5c7f360c");for(var i in delete t.s,r.animationSettings||(r.animationSettings=n({},e)),e)e.hasOwnProperty(i)&&(t[i]=e[i])})),(r=function(t,n){if(Y=n,!t||!t.root||!Array.isArray(t.animations))return null;for(var r=document.getElementsByTagName("svg"),e=!1,i=0;i<r.length;i++)if(r[i].id===t.root&&!r[i].svgatorAnimation){(e=r[i]).svgatorAnimation=!0;break}if(!e)return null;var o=t.animations.map((function(t){return rt(e,t)})).filter((function(t){return!!t}));return o.length?{element:e,animations:o,animationSettings:t.animationSettings,options:t.options||void 0}:null}(r,e))?{el:r.element,options:r.options||{},player:new t(r.animations,r.animationSettings,r.options)}:null}},{key:"push",value:function(t){return this.build(t)}},{key:"init",value:function(){var t=this,n=window.__SVGATOR_PLAYER__&&window.__SVGATOR_PLAYER__["5c7f360c"];Array.isArray(n)&&n.splice(0).forEach((function(n){return t.build(n)}))}}]),t}();function lt(t){return d(t)+""}function ft(t){var n=arguments.length>1&&void 0!==arguments[1]?arguments[1]:" ";return t&&t.length?t.map(lt).join(n):""}function st(t){return t?null==t.a||t.a>=1?"rgb("+t.r+","+t.g+","+t.b+")":"rgba("+t.r+","+t.g+","+t.b+","+t.a+")":"transparent"}function ct(t){return t?"url(#"+t+")":"none"}!function(){for(var t=0,n=["ms","moz","webkit","o"],r=0;r<n.length&&!window.requestAnimationFrame;++r)window.requestAnimationFrame=window[n[r]+"RequestAnimationFrame"],window.cancelAnimationFrame=window[n[r]+"CancelAnimationFrame"]||window[n[r]+"CancelRequestAnimationFrame"];window.requestAnimationFrame||(window.requestAnimationFrame=function(n){var r=Date.now(),e=Math.max(0,16-(r-t)),i=window.setTimeout((function(){n(r+e)}),e);return t=r+e,i},window.cancelAnimationFrame=window.clearTimeout)}();var ht={f:null,i:function(t,n,r){return 0===t?n:1===t?r:{x:q(t,n.x,r.x),y:q(t,n.y,r.y)}},u:function(t,n){return function(r){var e=n(r);t.setAttribute("rx",lt(e.x)),t.setAttribute("ry",lt(e.y))}}},vt={f:null,i:function(t,n,r){return 0===t?n:1===t?r:{width:q(t,n.width,r.width),height:q(t,n.height,r.height)}},u:function(t,n){return function(r){var e=n(r);t.setAttribute("width",lt(e.width)),t.setAttribute("height",lt(e.height))}}};Object.freeze({M:2,L:2,Z:0,H:1,V:1,C:6,Q:4,T:2,S:4,A:7});var yt={},gt=null;function dt(t){var n=function(){if(gt)return gt;if("object"!==("undefined"==typeof document?"undefined":r(document))||!document.createElementNS)return{};var t=document.createElementNS("http://www.w3.org/2000/svg","svg");return t&&t.style?(t.style.position="absolute",t.style.opacity="0.01",t.style.zIndex="-9999",t.style.left="-9999px",t.style.width="1px",t.style.height="1px",gt={svg:t}):{}}().svg;if(!n)return function(t){return null};var e=document.createElementNS(n.namespaceURI,"path");e.setAttributeNS(null,"d",t),e.setAttributeNS(null,"fill","none"),e.setAttributeNS(null,"stroke","none"),n.appendChild(e);var i=e.getTotalLength();return function(t){var n=e.getPointAtLength(i*t);return{x:n.x,y:n.y}}}function pt(t){return yt[t]?yt[t]:yt[t]=dt(t)}function mt(t,n,r,e){if(!t||!e)return!1;var i=["M",t.x,t.y];if(n&&r&&(i.push("C"),i.push(n.x),i.push(n.y),i.push(r.x),i.push(r.y)),n?!r:r){var o=n||r;i.push("Q"),i.push(o.x),i.push(o.y)}return n||r||i.push("L"),i.push(e.x),i.push(e.y),i.join(" ")}function bt(t,n,r,e){var i=arguments.length>4&&void 0!==arguments[4]?arguments[4]:1,o=mt(t,n,r,e),u=pt(o);try{return u(i)}catch(t){return null}}function wt(t,n,r,e){var i=1-e;return i*i*t+2*i*e*n+e*e*r}function xt(t,n,r,e){return 2*(1-e)*(n-t)+2*e*(r-n)}function At(t,n,r,e){var i=arguments.length>4&&void 0!==arguments[4]&&arguments[4],o=bt(t,n,null,r,e);return o||(o={x:wt(t.x,n.x,r.x,e),y:wt(t.y,n.y,r.y,e)}),i&&(o.a=kt(t,n,r,e)),o}function kt(t,n,r,e){return Math.atan2(xt(t.y,n.y,r.y,e),xt(t.x,n.x,r.x,e))}function St(t,n,r,e,i){var o=i*i;return i*o*(e-t+3*(n-r))+3*o*(t+r-2*n)+3*i*(n-t)+t}function _t(t,n,r,e,i){var o=1-i;return 3*(o*o*(n-t)+2*o*i*(r-n)+i*i*(e-r))}function Ot(t,n,r,e,i){var o=arguments.length>5&&void 0!==arguments[5]&&arguments[5],u=bt(t,n,r,e,i);return u||(u={x:St(t.x,n.x,r.x,e.x,i),y:St(t.y,n.y,r.y,e.y,i)}),o&&(u.a=jt(t,n,r,e,i)),u}function jt(t,n,r,e,i){return Math.atan2(_t(t.y,n.y,r.y,e.y,i),_t(t.x,n.x,r.x,e.x,i))}function Mt(t,n,r){return t+(n-t)*r}function Pt(t,n,r){var e=arguments.length>3&&void 0!==arguments[3]&&arguments[3],i={x:Mt(t.x,n.x,r),y:Mt(t.y,n.y,r)};return e&&(i.a=Et(t,n)),i}function Et(t,n){return Math.atan2(n.y-t.y,n.x-t.x)}function It(t,n,r){var e=arguments.length>3&&void 0!==arguments[3]&&arguments[3];if(Ft(n)){if(Nt(r))return At(n,r.start,r,t,e)}else if(Ft(r)){if(n.end)return At(n,n.end,r,t,e)}else{if(n.end)return r.start?Ot(n,n.end,r.start,r,t,e):At(n,n.end,r,t,e);if(r.start)return At(n,r.start,r,t,e)}return Pt(n,r,t,e)}function Rt(t,n,r){var e=It(t,n,r,!0);return e.a=function(t){return arguments.length>1&&void 0!==arguments[1]&&arguments[1]?t+Math.PI:t}(e.a)/m,e}function Ft(t){return!t.type||"corner"===t.type}function Nt(t){return null!=t.start&&!Ft(t)}var Tt=new N;var Bt={f:lt,i:B},qt={f:lt,i:L};function Lt(t,n,r){return t.map((function(t){return function(t,n,r){var e=t.v;if(!e||"g"!==e.t||e.s||!e.v||!e.r)return t;var i=r.getElementById(e.r),o=i&&i.querySelectorAll("stop")||[];return e.s=e.v.map((function(t,n){var r=o[n]&&o[n].getAttribute("offset");return{c:t,o:r=d(parseInt(r)/100)}})),delete e.v,t}(t,0,r)}))}var Ct={gt:"gradientTransform",c:{x:"cx",y:"cy"},rd:"r",f:{x:"x1",y:"y1"},to:{x:"x2",y:"y2"}};function Dt(t,n,e,i,o,u,a,l){return Lt(t,0,l),n=function(t,n,r){for(var e,i,o,u=t.length-1,a={},l=0;l<=u;l++)(e=t[l]).e&&(e.e=n(e.e)),e.v&&"g"===(i=e.v).t&&i.r&&(o=r.getElementById(i.r))&&(a[i.r]={e:o,s:o.querySelectorAll("stop")});return a}(t,i,l),function(i){var o=e(i,t,zt);if(!o)return"none";if("c"===o.t)return st(o.v);if("g"===o.t){if(!n[o.r])return ct(o.r);var u=n[o.r];return function(t,n){for(var r=t.s,e=r.length;e<n.length;e++){var i=r[r.length-1].cloneNode();i.id=Yt(i.id),t.e.appendChild(i),r=t.s=t.e.querySelectorAll("stop")}for(var o=0,u=r.length,a=n.length-1;o<u;o++)r[o].setAttribute("stop-color",st(n[Math.min(o,a)].c)),r[o].setAttribute("offset",n[Math.min(o,a)].o)}(u,o.s),Object.keys(Ct).forEach((function(t){if(void 0!==o[t])if("object"!==r(Ct[t])){var n,e="gt"===t?(n=o[t],Array.isArray(n)?"matrix("+n.join(" ")+")":""):o[t],i=Ct[t];u.e.setAttribute(i,e)}else Object.keys(Ct[t]).forEach((function(n){if(void 0!==o[t][n]){var r=o[t][n],e=Ct[t][n];u.e.setAttribute(e,r)}}))})),ct(o.r)}return"none"}}function zt(t,r,e){if(0===t)return r;if(1===t)return e;if(r&&e){var i=r.t;if(i===e.t)switch(r.t){case"c":return{t:i,v:z(t,r.v,e.v)};case"g":if(r.r===e.r){var o={t:i,s:Vt(t,r.s,e.s),r:r.r};return r.gt&&e.gt&&(o.gt=function(t,n,r){var e=n.length;if(e!==r.length)return T(t,n,r);for(var i=new Array(e),o=0;o<e;o++)i[o]=B(t,n[o],r[o]);return i}(t,r.gt,e.gt)),r.c?(o.c=C(t,r.c,e.c),o.rd=q(t,r.rd,e.rd)):r.f&&(o.f=C(t,r.f,e.f),o.to=C(t,r.to,e.to)),o}}if("c"===r.t&&"g"===e.t||"c"===e.t&&"g"===r.t){var u="c"===r.t?r:e,a="g"===r.t?n({},r):n({},e),l=a.s.map((function(t){return{c:u.v,o:t.o}}));return a.s="c"===r.t?Vt(t,l,a.s):Vt(t,a.s,l),a}}return T(t,r,e)}function Vt(t,n,r){if(n.length===r.length)return n.map((function(n,e){return Gt(t,n,r[e])}));for(var e=Math.max(n.length,r.length),i=[],o=0;o<e;o++){var u=Gt(t,n[Math.min(o,n.length-1)],r[Math.min(o,r.length-1)]);i.push(u)}return i}function Gt(t,n,r){return{o:L(t,n.o,r.o||0),c:z(t,n.c,r.c||{})}}function Yt(t){return t.replace(/-fill-([0-9]+)$/,(function(t,n){return"-fill-"+(+n+1)}))}var $t={fill:Dt,"fill-opacity":qt,stroke:Dt,"stroke-opacity":qt,"stroke-width":Bt,"stroke-dashoffset":{f:lt,i:B},"stroke-dasharray":{f:function(t){var n=arguments.length>1&&void 0!==arguments[1]?arguments[1]:" ";return t&&t.length>0&&(t=t.map((function(t){return d(t,4)}))),ft(t,n)},i:function(t,n,r){var e,i,o,u=n.length,a=r.length;if(u!==a)if(0===u)n=V(u=a,0);else if(0===a)a=u,r=V(u,0);else{var l=(o=(e=u)*(i=a)/function(t,n){for(var r;n;)r=n,n=t%n,t=r;return t||1}(e,i))<0?-o:o;n=G(n,Math.floor(l/u)),r=G(r,Math.floor(l/a)),u=a=l}for(var f=[],s=0;s<u;s++)f.push(d(q(t,n[s],r[s])));return f}},opacity:qt,transform:function(t,n,e,i){if(!(t=function(t,n){if(!t||"object"!==r(t))return null;var e=!1;for(var i in t)t.hasOwnProperty(i)&&(t[i]&&t[i].length?(t[i].forEach((function(t){t.e&&(t.e=n(t.e))})),e=!0):delete t[i]);return e?t:null}(t,i)))return null;var o=function(r,i,o){var u=arguments.length>3&&void 0!==arguments[3]?arguments[3]:null;return t[r]?e(i,t[r],o):n&&n[r]?n[r]:u};return n&&n.a&&t.o?function(n){var r=e(n,t.o,Rt);return Tt.recomposeSelf(r,o("r",n,B,0)+r.a,o("k",n,C),o("s",n,C),o("t",n,C)).toString()}:function(t){return Tt.recomposeSelf(o("o",t,It,null),o("r",t,B,0),o("k",t,C),o("s",t,C),o("t",t,C)).toString()}},r:Bt,"#size":vt,"#radius":ht,_:function(t,n){if(Array.isArray(t))for(var r=0;r<t.length;r++)this[t[r]]=n;else this[t]=n}},Ut=function(t){!function(t,n){if("function"!=typeof n&&null!==n)throw new TypeError("Super expression must either be null or a function");t.prototype=Object.create(n&&n.prototype,{constructor:{value:t,writable:!0,configurable:!0}}),n&&l(t,n)}(u,t);var n,r,i=(n=u,r=f(),function(){var t,e=a(n);if(r){var i=a(this).constructor;t=Reflect.construct(e,arguments,i)}else t=e.apply(this,arguments);return c(this,t)});function u(){return e(this,u),i.apply(this,arguments)}return o(u,null,[{key:"build",value:function(t){var n=h(a(u),"build",this).call(this,t,$t);if(!n)return null;n.el,n.options,function(t,n,r){t.play()}(n.player)}}]),u}(at);return Ut.init(),Ut}));
(function(s,i,o,w){w[o]=w[o]||{};w[o][s]=w[o][s]||[];w[o][s].push(i);})('5c7f360c',{"root":"eGIWKBJ732D1","animations":[{"elements":{"eGIWKBJ732D15":{"transform":{"data":{"o":{"x":29.90945,"y":136.105006,"type":"corner"},"t":{"x":-29.8136,"y":-141.5}},"keys":{"s":[{"t":0,"v":{"x":1,"y":0.052925}},{"t":3000,"v":{"x":1,"y":0.880617}}]}}}},"s":"MNDA1M2JiNjJhNEJiNWCIyYTFiNGE5UWFmYWUC2MjdhNzM3MDcwNzA2GYzYyYTRhOWIyYTVhMM2I0YTlhZkFhZTYyN2XE3MTZjNjJhOWI0YTVNiMlJhMWI0YTlhZmFlLYjM2MjdhNzE2YzYyYWTZhOWFjYWNRNjI3YTIcxNmM2MmExYWNiNGEA1YjJhZWExYjRhNTYyEN2FhNmExYWNKYjNhNRTZjNjJYYjNJYjBhNWTE1YTQ2MlNQN2E3MWJNk"}],"options":"MTDAxMDg4MmY4MDgxNmOU3ZkE4MTJmNDcyZjcW5N2M2ZTcxMmY4YQ|"},'__SVGATOR_PLAYER__',window)]]></script></svg>