<svg width="58" height="148" viewBox="0 0 58 148" fill="none" xmlns="http://www.w3.org/2000/svg">
<g clip-path="url(#clip0_46_99)">
<path d="M17.1695 42.1925C7.8382 46.2907 4.85217 56.6293 4.19898 66.409C3.45247 76.0025 3.54578 85.7822 3.26584 95.3757C2.9859 104.783 2.33271 114.283 2.51934 123.783C2.61265 128.999 3.35916 134.495 6.99838 138.686C9.70447 141.853 13.5303 143.809 17.4495 144.74C25.8477 146.696 34.3392 144.088 42.1775 141.573C46.2833 140.269 50.7624 138.686 53.0952 134.681C55.0548 131.328 55.0548 127.043 54.9615 123.132C54.7749 113.259 54.4016 103.479 53.935 93.606C53.4685 83.9194 52.8153 74.326 51.8821 64.6394C51.2289 57.0019 50.8557 46.0113 43.1107 42.5651C34.2459 40.7954 25.5678 38.5601 17.1695 42.1925ZM10.9175 53.09C10.6376 51.9723 11.5707 50.9477 12.1306 50.1095C12.6905 49.3643 13.3437 48.1535 14.4635 48.3398C16.7963 48.8055 13.437 53.8351 12.0373 53.9282C11.3841 53.9282 11.0109 53.6488 10.9175 53.09ZM7.55826 60.6343C7.93152 59.3304 8.58471 57.2813 9.98441 56.8156C10.2644 56.7224 10.5443 56.9087 10.6376 57.1881C11.0109 58.399 10.2644 59.9823 9.98441 61.1932C9.61116 62.5903 9.8911 64.4531 9.2379 65.757C8.86465 66.5953 7.74489 66.6884 7.27832 65.757C6.53181 64.1737 7.18501 62.1246 7.55826 60.6343Z" fill="#EAC291"/>
<path d="M13.6236 34.555C11.664 36.0453 10.2643 38.1875 10.0777 40.7955C9.98441 41.82 10.3577 42.9377 10.5443 43.9622C11.7574 42.8445 13.1571 41.82 14.6501 40.9817C14.1835 40.8886 13.8103 40.6092 13.7169 40.1435C13.5303 39.3983 13.7169 38.7464 13.9036 38.0944C13.9969 37.4424 14.1835 36.7904 14.5568 36.2316C14.8367 35.859 15.5832 35.859 15.7698 36.4179C16.0498 37.163 16.0498 37.815 15.9565 38.5601C15.8631 39.3052 15.8631 40.0503 15.4899 40.7023C16.703 40.1435 17.916 39.5846 19.3157 39.2121C26.5009 37.163 34.4325 38.1875 41.8043 40.516C43.5772 40.516 45.0702 40.9817 46.3766 41.82C46.6566 40.1435 47.1231 38.8395 46.3766 36.9767C45.4435 34.6482 43.5772 33.1579 41.431 32.2265C37.3252 30.4569 32.2863 30.4569 27.9939 30.7363C23.0483 30.8294 17.4495 31.5746 13.6236 34.555ZM21.8352 34.555C22.0218 35.1139 21.9285 35.6727 21.8352 36.2316C21.7419 36.8836 21.7419 37.5355 20.9954 37.9081C20.6221 38.0944 20.1556 37.9081 19.8756 37.6287C19.4091 37.0698 19.5957 36.4179 19.689 35.7659C19.7823 35.207 19.8756 34.555 20.2489 34.0893C20.7154 33.4374 21.5553 33.8099 21.8352 34.555ZM28.0872 35.859C27.9006 36.6041 26.5942 36.511 26.5009 35.6727C26.4076 34.4619 26.5942 33.0648 27.434 32.1334C27.6206 31.9471 27.8073 31.9471 27.9006 32.2265C28.5538 33.2511 28.4605 34.6482 28.0872 35.859ZM40.3113 37.163C40.4979 36.6973 40.6845 36.2316 40.8711 35.6727C40.9645 35.3933 40.9645 35.0208 41.0578 34.7413C41.1511 34.555 41.3377 34.3688 41.431 34.1825C41.5243 33.9031 41.8043 33.9031 41.9909 34.0893C42.1775 34.2756 42.4575 34.3688 42.5508 34.6482C42.7374 35.0208 42.8307 35.3933 42.8307 35.7659C42.8307 36.511 42.7374 37.2561 42.4575 37.9081C42.1775 38.4669 41.711 38.7464 41.0578 38.5601C40.4979 38.3738 40.1246 37.6287 40.3113 37.163ZM35.5523 33.9031C35.7389 33.3442 36.1122 32.2265 36.8587 32.3197C37.6052 32.4128 37.5119 33.8099 37.4185 34.2756C37.3252 34.7413 37.2319 35.3002 37.1386 35.7659C37.0453 36.2316 36.952 36.6973 36.4854 36.9767C36.0188 37.2561 35.459 37.163 35.0857 36.6041C34.7125 35.7659 35.2723 34.6482 35.5523 33.9031ZM30.9799 35.7659C31.0732 35.1139 31.3532 34.4619 31.4465 33.8099C31.5398 33.0648 31.7264 32.5991 32.3796 32.2265C32.5662 32.1334 32.8462 32.4128 32.9395 32.506C33.3128 32.8785 33.4061 33.3442 33.4061 33.9031C33.3128 34.7413 33.1261 35.859 32.6596 36.4179C32.0997 37.163 30.8866 36.7904 30.9799 35.7659Z" fill="#CA9345"/>
<path d="M29.6736 2.32846C25.2879 2.79416 23.6083 8.01002 24.0748 11.9219C24.4481 15.5544 26.5943 18.8143 26.7809 22.4468C26.7809 22.5399 26.7809 22.5399 26.6876 22.6331C27.0609 22.7262 27.1542 23.285 26.8742 23.5645C25.2879 24.589 23.5149 25.0547 22.1152 26.3587C21.3687 27.1038 20.8089 28.0352 20.3423 28.9666C23.235 28.3146 26.3143 28.0352 29.0204 27.9421C32.1931 27.8489 35.8323 27.8489 39.2849 28.6872C39.2849 28.5009 39.2849 28.3146 39.1916 28.0352C38.9117 27.1038 38.1651 26.4518 37.4186 25.9861C36.0189 25.0547 33.7794 24.6821 33.0329 23.0056C32.9396 22.8193 33.0329 22.6331 33.1262 22.5399C33.0329 22.4468 33.0329 22.3536 33.0329 22.1673C33.1262 17.5103 39.2849 1.30391 29.6736 2.32846Z" fill="#EFD860"/>
<path d="M37.4183 7.26505C37.0451 2.98059 33.8724 -0.27932 29.6733 0.000101129C19.3155 0.652084 20.2487 16.6722 26.1274 22.5401C23.9812 22.1675 22.0216 23.5646 20.6219 24.9617C19.5955 25.9863 18.2891 27.7559 18.1958 29.5256C15.303 30.457 12.597 31.9472 10.7307 34.1826C9.05105 36.1386 8.0246 38.7465 8.11791 41.3544C8.11791 42.5652 8.39785 44.2418 9.23767 45.1732C6.25164 48.4331 4.19875 52.7175 3.07899 57.4677C0.652837 67.8063 1.30603 79.1694 1.02609 89.7874C0.652837 101.337 -0.186984 113.072 0.0929563 124.622C0.279583 133.563 3.63887 141.294 11.8504 145.392C20.342 149.583 29.6733 148 38.1648 145.578C46.0032 143.343 54.8679 140.921 56.8275 131.607C57.854 126.764 57.3874 121.641 57.2008 116.705C57.0141 111.303 56.8275 105.808 56.6409 100.405C56.081 87.3657 55.2412 74.4192 54.0281 61.4727C53.5616 56.0706 52.2552 47.5017 47.9627 43.1241C51.0421 40.7024 48.336 34.3689 46.0032 32.1335C44.6968 30.9227 43.2038 30.0844 41.6174 29.4324C41.8974 28.1285 41.0576 26.2657 40.311 25.3343C39.1913 24.0303 36.3919 22.2606 34.339 22.2606C36.9518 18.535 37.7916 11.7358 37.4183 7.26505ZM51.6953 64.7326C52.5351 74.3261 53.1883 84.0127 53.7482 93.6993C54.2147 103.572 54.6813 113.352 54.7746 123.225C54.8679 127.137 54.8679 131.328 52.9084 134.774C50.6688 138.779 46.0965 140.363 41.9907 141.667C34.1524 144.181 25.6608 146.789 17.2626 144.833C13.3435 143.902 9.51761 141.946 6.81152 138.779C3.1723 134.681 2.42579 129.186 2.33248 123.877C2.23917 114.47 2.79905 104.969 3.07899 95.4689C3.35893 85.7823 3.35893 76.0958 4.01212 66.5023C4.75863 56.7226 7.65134 46.384 16.9827 42.2858C25.3809 38.5602 34.059 40.7956 42.7372 42.6584C50.6688 46.1046 51.0421 57.002 51.6953 64.7326ZM46.1898 36.6974C46.9363 38.5602 46.3764 39.9573 46.1898 41.5407C44.8834 40.7024 43.3904 40.2367 41.6174 40.2367C34.2457 38.0014 26.314 36.9768 19.1289 38.9328C17.7292 39.3053 16.5161 39.8642 15.303 40.423C15.6763 39.771 15.6763 39.0259 15.7696 38.2808C15.8629 37.5357 15.8629 36.8837 15.583 36.1386C15.3964 35.5797 14.6499 35.5797 14.3699 35.9523C13.9033 36.5111 13.81 37.1631 13.7167 37.8151C13.6234 38.4671 13.4368 39.2122 13.5301 39.8642C13.6234 40.3299 14.09 40.7024 14.4632 40.7024C12.9702 41.5407 11.5705 42.5652 10.3574 43.6829C10.1708 42.6584 9.79755 41.6338 9.89087 40.5161C10.0775 37.9082 11.4772 35.766 13.4368 34.2757C17.3559 31.2953 22.8614 30.5501 27.7137 30.2707C32.0061 29.9913 37.0451 29.9913 41.1509 31.761C43.4837 32.9718 45.35 34.462 46.1898 36.6974ZM39.098 27.9422C39.1913 28.1285 39.1913 28.3148 39.1913 28.5942C35.832 27.7559 32.0995 27.7559 28.9268 27.8491C26.2207 27.9422 23.1414 28.2216 20.2487 28.8736C20.8085 27.9422 21.2751 27.0108 22.0216 26.2657C23.4213 24.9617 25.2876 24.496 26.7806 23.4715C27.0605 23.2852 26.9672 22.7263 26.594 22.5401C26.594 22.4469 26.6873 22.4469 26.6873 22.3538C26.5007 18.8144 24.2611 15.4614 23.9812 11.8289C23.6079 8.01017 25.1943 2.79431 29.6733 2.32861C39.2846 1.30407 33.1259 17.5105 33.0326 22.0744C33.0326 22.1675 33.0326 22.3538 33.1259 22.4469C32.9393 22.5401 32.9393 22.7263 33.0326 22.9126C33.6858 24.5892 36.0186 25.0549 37.4183 25.8931C38.0715 26.452 38.818 27.1039 39.098 27.9422Z" fill="#3F2409"/>
<path d="M14.4636 48.3399C13.3438 48.1536 12.6906 49.3644 12.1307 50.1096C11.5709 50.9478 10.6377 51.9724 10.9177 53.0901C11.1043 53.6489 11.4776 53.9283 12.0374 53.9283C13.4371 53.8352 16.7964 48.8056 14.4636 48.3399Z" fill="white"/>
<path d="M9.9844 56.8156C8.5847 57.2813 7.83819 59.3304 7.55825 60.6343C7.185 62.1246 6.62512 64.2668 7.37162 65.7571C7.83819 66.6885 8.86464 66.5022 9.33121 65.7571C9.9844 64.4531 9.79777 62.5903 10.0777 61.1932C10.3577 59.9823 11.0108 58.399 10.7309 57.1881C10.451 56.8156 10.2643 56.7224 9.9844 56.8156Z" fill="white"/>
<path d="M41.8977 34.0893C41.7111 33.903 41.4311 33.903 41.3378 34.1824C41.2445 34.3687 41.0579 34.555 40.9646 34.7413C40.8713 35.0207 40.8713 35.3001 40.7779 35.6727C40.6846 36.2315 40.498 36.6972 40.2181 37.1629C39.9381 37.7218 40.4047 38.3738 40.8713 38.56C41.4311 38.8395 41.991 38.4669 42.271 37.9081C42.5509 37.2561 42.7375 36.5109 42.6442 35.7658C42.6442 35.3933 42.5509 34.9276 42.3643 34.6481C42.3643 34.3687 42.0843 34.2756 41.8977 34.0893Z" fill="#3F2409"/>
<path d="M36.8586 32.3197C36.1121 32.2265 35.7388 33.3442 35.5522 33.9031C35.2723 34.7413 34.7124 35.859 35.179 36.6973C35.4589 37.2561 36.0188 37.3493 36.5787 37.0698C37.0452 36.7904 37.1386 36.3247 37.2319 35.859C37.3252 35.3933 37.4185 34.8345 37.5118 34.3688C37.4185 33.8099 37.6051 32.3197 36.8586 32.3197Z" fill="#3F2409"/>
<path d="M33.0328 32.5991C32.8462 32.5059 32.6595 32.2265 32.4729 32.3196C31.8197 32.6922 31.6331 33.1579 31.5398 33.903C31.4465 34.555 31.1665 35.1139 31.0732 35.859C30.9799 36.8835 32.193 37.2561 32.7528 36.511C33.2194 35.859 33.4994 34.7413 33.4994 33.9962C33.4994 33.4373 33.406 32.8785 33.0328 32.5991Z" fill="#3F2409"/>
<path d="M27.4341 32.0403C26.6876 32.9717 26.501 34.3688 26.501 35.5796C26.501 36.4179 27.8074 36.511 28.0873 35.7659C28.3672 34.5551 28.4606 33.158 27.9007 32.0403C27.9007 31.9471 27.6207 31.854 27.4341 32.0403Z" fill="#3F2409"/>
<path d="M20.249 34.0894C19.9691 34.5551 19.7825 35.2071 19.6892 35.7659C19.5958 36.4179 19.4092 37.0699 19.8758 37.6287C20.1557 37.9081 20.6223 38.0944 20.9955 37.9081C21.6487 37.5356 21.742 36.9767 21.8354 36.2316C21.9287 35.6728 21.9287 35.0208 21.8354 34.5551C21.5554 33.81 20.7156 33.4374 20.249 34.0894Z" fill="#3F2409"/>



<!-- <path d="M50.5296 128.758L50.5201 128.797L50.5136 128.836C50.3561 129.78 49.9976 131.285 49.4451 132.682C49.1692 133.38 48.8545 134.026 48.5077 134.555C48.1555 135.091 47.8069 135.45 47.4855 135.643C46.3299 136.336 43.037 137.808 39.005 139.111C34.9981 140.406 30.3915 141.489 26.5584 141.5C23.8049 141.17 19.6005 140.219 15.9073 138.448C12.1476 136.646 9.1798 134.125 8.47852 130.794C7.99991 128.521 7.62502 123.33 7.41354 116.578C7.20319 109.862 7.15632 101.692 7.31229 93.5192C7.46829 85.3448 7.82695 77.1825 8.42569 70.4797C8.72514 67.1275 9.0835 64.1534 9.5038 61.7316C9.9284 59.2851 10.403 57.4853 10.9037 56.4282C12.6333 52.7768 17.1487 48.9142 22.4895 46.5822C27.8309 44.2499 33.6704 43.5882 38.0343 45.885C42.6316 48.3047 44.8393 50.9149 45.9181 53.0723C46.9987 55.2336 47 57.0414 47 58.0001C47 58.5532 47.303 63.6618 47.7323 70.8995C48.1082 77.2373 48.581 85.2077 49.0319 93.1815C49.5161 101.743 49.9766 110.332 50.2694 116.966C50.4159 120.284 50.5201 123.107 50.5644 125.191C50.5866 126.234 50.5937 127.084 50.584 127.715C50.5791 128.031 50.5702 128.283 50.5578 128.473C50.5448 128.672 50.5308 128.752 50.5297 128.758L50.5296 128.758Z" fill="white" stroke="#3F2409" stroke-width="2"  /> -->
</g>


<defs>
<clipPath id="clip0_46_99">
<rect width="57.3878" height="148" fill="white"/>
</clipPath>
</defs>
</svg>
