<svg xmlns="http://www.w3.org/2000/svg" viewBox="0 0 859.4 143.54"><g id="Layer_2" data-name="Layer 2"><g id="Layer_1-2" data-name="Layer 1"><path d="M249.22,76.6c.21.28,1.2-.08,1.38.2s-1.38,1.48-1.21,1.78,2.63-.58,2.77-.27-1.74,1.32-1.64,1.65-.49.66-.42,1,3.3,0,3.35.34.57.7.6,1,0,.77,0,1.12.2.72.19,1-3.26.38-3.29.7,3.79,1.18,3.73,1.49-3.85-.11-3.93.2,3.13,1.53,3,1.84-1.17.36-1.29.65.3.94.16,1.22-1.71-.16-1.88.11-1.56-.39-1.75-.13.29.9.07,1.15-.78,0-1,.2,1.56,2.71,1.31,2.91-1.18-.3-1.47-.1.39,2.07.09,2.25-.72.49-1,.64-1.18-.65-1.51-.52-1.15-1-1.48-.89-.6.4-.94.49-.94-1-1.29-1-.82-1-1.16-.94-.52.57-.87.62-.27,3.67-.62,3.71-1-3.9-1.34-3.88-.6.62-.95.63-.65,3-1,3-.49-2.51-1-2.51-.49,3.35-1,3.35-.5-4.43-1-4.43-.49,2.3-1,2.3-.49-.23-1-.23-.49.16-1,.16-.5-2.3-1-2.3-.49-.21-1-.21-.49,3.29-1,3.29-.49,0-1,0-.49,1.37-1,1.37-.49.19-1,.19-.5-4.91-1-4.91-.5.18-1,.18-.49,4-1,4-.5-1.89-1-1.89-.5-1-1-1-.5,2.89-1,2.89S217.5,97,217,97s-.5-.69-1-.69-.5.15-1,.15-.5.61-1,.61-.5-1.57-1-1.57-.5,4.31-1,4.31-.5-1.24-1-1.24-.5,1.1-1,1.1.35-2.91,0-3.26,1,.49,1,0-.5-.5-.5-1,.26-.5.26-1,0-.5,0-1-.91-.5-.91-1-2.14-.49-2.14-1-.77-.5-.77-1-.07-.5-.07-1,1.9-.5,1.9-1,.41-.49.41-1,.28-.5.28-1,1.41-.5,1.41-1,.62-.5.62-1-4.93-.5-4.93-1,1.84-.5,1.84-1,.88-.49.88-1-1.4-.5-1.4-1,2-.5,2-1,1.15-.5,1.15-1-4.39-.5-4.39-1,1.38-.5,1.38-1,2.37-.5,2.37-1-1.26-.5-1.26-1,1.22-.5,1.22-1-1.54-.5-1.54-1-.48-.5-.48-1-1.75-.49-1.75-1,1.33-.5,1.33-1,3-.5,3-1-2-.5-2-1,2.13-.5,2.13-1-4.48-.5-4.48-1,2.19-.5,2.19-1-.73-.5-.73-1-1.31-.5-1.31-1,1-.5,1-1,3.13-.5,3.13-1-3-.5-3-1,2.51-.5,2.51-1,.88-.5.88-1,.3-.5.3-1-3.43-.5-3.43-1,.85-.5.85-1,.45-.5.45-1-1-.5-1-1-.79-.51-.79-1,.49-.5.49-1,.66-.5.66-1-2-.51-2-1,1.35-.5,1.35-1,1.47.31,1.83,0-.47-.23,0-.23.5-1.88,1-1.88.5,1.13,1,1.13.5.61,1,.61.5-2.25,1-2.25.49,2.05,1,2.05.5.42,1,.42.5-.59,1-.59.5,0,1,0,.5,1.06,1,1.06.5.34,1,.34.5-2.67,1-2.67.5-1,1-1,.5-.44,1-.44.5,3.7,1,3.7.5,1,1,1,.5-2.22,1-2.22.49,2.45,1,2.45.51-3.07,1-3.07.5-.62,1-.62.5,2.33,1,2.33.5,1,1,1,.5-3.78,1-3.78.5,2.18,1,2.18.51.63,1,.63.51-.9,1-.9c.34,0,.72-2.08,1.05-2.07s.7.5,1,.52.57,1.51.9,1.54.84-1.23,1.16-1.19.77-.22,1.09-.16.18,2.64.49,2.71.87-.83,1.19-.74.31,1.19.62,1.29,1.17-1.3,1.47-1.18,1.28-1.07,1.58-.93-1.06,3.56-.77,3.72.76-.15,1,0,1.13-.53,1.4-.33-.3,1.35-.05,1.58.24.54.47.79,1.06-.12,1.27.15-.57,1.07-.39,1.36,3-.85,3.1-.55,1.45.31,1.57.63-3.4,1.88-3.3,2.21,1.65.26,1.72.6.68.61.73,1,1.09.66,1.11,1-1.21.78-1.21,1.13-2.78.54-2.8.86,1.25.69,1.2,1,2.46,1.13,2.39,1.46-2.6.07-2.7.38a9.22,9.22,0,0,1-.15.94c-.13.31-.66.35-.81.64s-1.28-.14-1.46.14-.34.31-.54.57.87,1.37.66,1.61,1.83,2.77,1.6,3-.49.72-.74.92-1.67-1-1.94-.86-1.58-1.51-1.86-1.36.63,2.75.33,2.88-.56.6-.87.7,1.08-1.44.77-1.36c.32.07-1.94,1.42-1.64,1.51s.86-.7,1.15-.59,1.23-1.2,1.51-1.07.75.16,1,.32.83.11,1.09.28-1.1,2.67-.86,2.87,1.86-1.19,2.09-1-.82,1.7-.6,1.94S249,76.34,249.22,76.6ZM224,67.34c.36.37,1.53-.59,2-.59s.51,2,1,2,.51-2.62,1-2.62.52,2.11,1,2.11.52.68,1,.68.52-3.23,1-3.23.63-.49,1-.54a3.33,3.33,0,0,0,.88-.13c.38-.13.24-.29.51-.52s3,1.47,3.13,1.18-3.37-1.89-3.3-2.24,3.87-.23,3.87-.58-3.41-.41-3.47-.72.85-.7.7-1-.65.09-.91-.13.34-1.69,0-1.83-.55-1.74-1-1.8-1,.69-1.39.69-.51-.59-1-.59-.51,3-1,3-.52-1-1-1-.52,1.94-1,1.94-.51.08-1,.08.26-1.84-.11-1.48-1-.42-1,.09.19.51.19,1-1.26.51-1.26,1-1.14.51-1.14,1,.48.51.48,1,3.64,1.41,3.41,1.87C226.16,67.2,223.67,67,224,67.34Zm12.38,17.57c.26-.2,0-1.38.11-1.68s2.21-.34,2.28-.69-2.49-1.09-2.49-1.45,2-1.13,2-1.46.16-1.6,0-1.89-3,1.26-3.3,1-.56.19-.92.06a2.93,2.93,0,0,0-.79-.26c-.33,0-.54.16-.93.16s-.51-3.23-1-3.23-.52,3.91-1,3.91-.52-3.82-1-3.82-.52,3.41-1,3.41-.52-1-1-1-.52.65-1,.65-.91-1.86-1.28-1.49-1.63.75-1.63,1.27.78.51.78,1-.6.52-.6,1,3,.51,3,1-1,.51-1,1,1.95.51,1.95,1-1-1-.63-.68-1.19.39-.67.39.52,1.35,1,1.35.51-.19,1-.19.52,1.26,1,1.26.52,1.15,1,1.15.52-.48,1-.48.52-3.62,1-3.62,1.05,3.93,1.39,3.88,1-.77,1.33-.88A6.57,6.57,0,0,0,236.42,84.91Z"/><path d="M291.66,88.84c-.4-.3-1.16.74-1.65.74s-.5,0-1,0-.5.12-1,.12-.5-2.22-1-2.22-.49,3.81-1,3.81-.5-2.41-1-2.41-.5,1.19-1,1.19-.5.21-1,.21-.5.17-1,.17-.5-1.63-1-1.63-.5-1.77-1-1.77-.5,2.52-1,2.52-.5-2.48-1-2.48-.5.67-1,.67-.51-.41-1-.41-.5,3-1,3,.4.42,0,.71-2.37-1.28-2.53-.8,1.5,1,1.35,1.5-2.13-.16-2.28.32,3,1.5,2.8,2-3.33-.56-3.49-.08.41.67.26,1.15.46.69.3,1.17,0,.1-.45.4,0,1.48-.46,1.48-.5-2.35-1-2.35S269,97,268.53,97s-.49-2.13-1-2.13-.49,2.86-1,2.86-.49-2.3-1-2.3-.5-.74-1-.74-.49,3.52-1,3.52-.49.53-1,.53-.49-.08-1-.08-.49.23-1,.23-.49-3.52-1-3.52-.5,4.27-1,4.27-.49-4.17-1-4.17-.49,3.73-1,3.73-.5-1.09-1-1.09-1.83.53-2.12.12,1.65-1.12,1.82-1.59,1.74.11,1.91-.37-.63-.76-.45-1.23.78-.24.95-.71-2.95-1.61-2.78-2.08,1.16-.11,1.33-.58-1.82-1.19-1.65-1.66.09-.5.26-1,1.3-.06,1.47-.53,1.56,0,1.73-.43,0-.54.15-1,1.46,0,1.63-.47,1.35,0,1.52-.52-.32-.65-.14-1.12-3.54-1.83-3.36-2.3,4.23,1,4.41.54-.42-.68-.25-1.16-2.92-1.6-2.75-2.07,2.74.47,2.92,0-3.26-1.73-3.09-2.2,4.7,1.19,4.88.72-2.18-1.33-2-1.8.4-.39.57-.86,0-.53.19-1,2.54.39,2.71-.08.38-.4.55-.87-3.2-1.71-3-2.18.16-.48.33-1-1.23-1-1.06-1.46,0-.54.15-1,5.21,1.36,5.38.89,0-.54.16-1-4-2-3.8-2.47,2.11.24,2.28-.23,1.23-.09,1.4-.56-2.79-1.56-2.62-2,2.41.34,2.58-.13.88-.22,1.05-.69,0-.53.19-1-.45-.7-.28-1.18,1.78.12,2-.35-4.24-2.09-4.07-2.56,1.43,0,1.61-.48-.95-.89-.78-1.36,3.93.9,4.1.43.76-.26.93-.73-.34-.67-.16-1.14.44-.38.61-.85.14-.49.32-1-.76-.81-.59-1.29-2-1.28-1.85-1.75-.61-.76-.43-1.24.1-.5.27-1,2-.11,2.42-.4.69.39,1.21.39.51.31,1,.31.51,1.53,1,1.53.51.68,1,.68.51-5.38,1-5.38.51,2,1,2,.51,1,1,1,.51-1.54,1-1.54.51,2.24,1,2.24.51,1.25,1,1.25.51-4.79,1-4.79.51,1.5,1,1.5.51,2.59,1,2.59.51-1.38,1-1.38.51,1.34,1,1.34.52-1.68,1-1.68.52-.53,1-.53,2.12-1.73,2.54-1.44-.19,2.26,0,2.73-2.87,1.58-2.7,2,2.2-.27,2.37.2-2,1.27-1.85,1.73,4.76-1.2,4.93-.73S294,51.53,294.13,52s.92.2,1.09.67,1.51,0,1.69.45-.85.84-.68,1.31-3,1.64-2.87,2.11,3.22-.64,3.39-.17-2.4,1.4-2.23,1.87-.73.81-.56,1.28-.13.58,0,1.05,3.7-.81,3.87-.34-.7.79-.53,1.27-.29.63-.12,1.11,1.18.1,1.35.57,1,.18,1.16.65-.34.65-.16,1.12-.51.72-.34,1.19,2.2-.27,2.37.2-1.22,1-1,1.45-2.11,1.3-1.93,1.77.81.24,1,.71,2.11-.23,2.28.24-1,.9-.83,1.37-.45.7-.28,1.17,2.49-.37,2.66.1-1.94,1.24-1.76,1.72-.26.63-.09,1.1.78.25.95.72.22.46.39.93-.92.87-.75,1.35-.17.59,0,1.07,2.91-.53,3.08,0,1.2.1,1.37.57.61.31.79.78-3.62,1.86-3.45,2.33-.87.85-.7,1.33,2.46-.36,2.63.11-2.34,1.39-2.17,1.86,3.32-.68,3.49-.21.81.25,1,.72-2.21,1.34-2,1.82-.85.84-.67,1.31,4.05-.94,4.23-.46-2.07,1.29-1.9,1.76-.47.71-.3,1.19,1.09.13,1.27.61,2.31-.31,2.48.17-.31.65-.13,1.12-1.34,1-1.16,1.51,1.82,1.3,1.54,1.72a4.08,4.08,0,0,1-2.15,1c-.49,0-.49-2.8-1-2.8s-.49,1.1-1,1.1-.49-1.16-1-1.16-.49,1.76-1,1.76-.49,1.62-1,1.62-.49-4-1-4-.49.55-1,.55-.49,1.17-1,1.17-.49-1.36-1-1.36-.5-.25-1-.25-.5,1-1,1-.5-1.18-1-1.18-.5,3.26-1,3.26-.49,1.3-1,1.3-.5-4.18-1-4.18-.73,1.94-1.13,1.64-.83-.4-1-.88-1.21-.14-1.37-.62,1.13-.9,1-1.38,2.72-1.42,2.57-1.9-1.5,0-1.66-.52-2.86.4-3-.08,2.25-.88,2.34-1.38A2.06,2.06,0,0,0,291.66,88.84ZM288,78.38c.3-.39-.89-1.19-1-1.66s-.21-.46-.36-.93-.27-.43-.42-.9,2-1.16,1.8-1.63-3.78.71-3.93.23,2.14-1.21,2-1.69-1.28-.1-1.44-.57-.35-.41-.5-.89-.32-.41-.48-.89,1.4-1,1.24-1.45,1.54-1,1.39-1.49-2.56.31-2.71-.17,2.21-1.24,2-1.71-.79-.27-.95-.75-1.61-2.68-2.11-2.69.44,3,.29,3.48.84.79.69,1.26-3-.44-3.14,0,1.51,1,1.36,1.48-2.12-.17-2.28.3,3,1.49,2.82,2-3.33-.56-3.48-.09.41.66.26,1.14.47.67.31,1.14-.59.33-.75.81,1.42,1,1.27,1.45-2.39-.25-2.54.22.9.82.74,1.29-2.18-.18-2.33.3,2.07,1.19,2.37,1.59.29,2.19.8,2.19.51.73,1,.73.51-3.52,1-3.52.52-.52,1-.52.51.08,1,.08.51-.24,1-.24.51,3.52,1,3.52,1.38-4.29,1.86-4.1C287.9,76.1,287.68,78.79,288,78.38Z"/><path d="M354.37,76.41c.21.28,0,.7.21,1s.13.57.29.88-.29.71-.16,1,1.27.1,1.38.43,1.7.21,1.78.55,1.58.49,1.64.83-3.6,1.09-3.57,1.44,1.74.56,1.74.91.39.67.37,1,.07.68,0,1,1.52.94,1.46,1.25-.85.61-.92.92-1.23.39-1.33.69-.47.52-.59.82-.52.45-.66.74.38.95.21,1.23.59,1.28.4,1.54-2.77-1.41-3-1.16,2.36,3.19,2.12,3.42-3.72-3.22-4-3,.39,1.42.1,1.62.09,1.33-.21,1.51.39,2.37.08,2.52-1-.15-1.29,0-.61.68-.94.8-1.93-3.91-2.26-3.82-.31,1.25-.66,1.33-.47,1-.81,1-.67.16-1,.21-.67.19-1,.22-.81-2-1.16-1.94-.52,3.52-.87,3.53-.74-2.19-1.09-2.19-.49,1.08-1,1.08-.5.19-1,.19-.49.16-1,.16-.49-1.49-1-1.49-.5-1.63-1-1.63-.5,2.31-1,2.31-.49-2.27-1-2.27-.49.62-1,.62-.49-.38-1-.38-.49,2.73-1,2.73-.5,1-1,1-.5-2.72-1-2.72-.5,1.6-1,1.6-.49-1.9-1-1.9-.49,3-1,3-.49-3.06-1-3.06-.49.55-1,.55-.49.6-1,.6-.49-.43-1-.43-.49,1.51-1,1.51-.49-2.15-1-2.15-.49,1-1,1-.49-2-1-2-.49,2.62-1,2.62-.5-2.11-1-2.11-.49-.68-1-.68-1.14,3.38-1.49,3a2.45,2.45,0,0,1-.68-1.49c0-.5.07-.5.07-1s-.22-.5-.22-1,3.23-.5,3.23-1-3.91-.5-3.91-1,3.82-.49,3.82-1-3.41-.5-3.41-1,1-.5,1-1-.65-.5-.65-1,1.59-.49,1.59-1,1.53-.5,1.53-1-.78-.5-.78-1,.6-.5.6-1-3.05-.5-3.05-1,1-.5,1-1-1.95-.49-1.95-1-.08-.5-.08-1,1.1-.5,1.1-1,1.35-.5,1.35-1-.19-.5-.19-1,1.26-.5,1.26-1,1.14-.5,1.14-1-.48-.5-.48-1-3.61-.5-3.61-1,4-.5,4-1-.58-.5-.58-1-3-.49-3-1,2.51-.5,2.51-1-3.35-.5-3.35-1,4.42-.5,4.42-1-2.29-.5-2.29-1,.22-.5.22-1-.16-.5-.16-1,2.31-.5,2.31-1,.2-.5.2-1-3.29-.5-3.29-1,0-.5,0-1-1.37-.5-1.37-1-.19-.5-.19-1,4.9-.5,4.9-1-.18-.5-.18-1-4-.5-4-1,1.89-.5,1.89-1,1-.5,1-1-2.89-.5-2.89-1,2.18-.51,2.18-1,.69-.5.69-1-.15-.5-.15-1-.62-.51-.62-1,1.58-.5,1.58-1-4-2.34-3.61-2.7,2.21.51,2.71.51.49-1.09,1-1.09.5,3.66,1,3.66.5.57,1,.57.5-.5,1-.5.5.26,1,.26.5,0,1,0,.5-.91,1-.91.5-2.14,1-2.14.5-.76,1-.76.5-.07,1-.07.5,1.89,1,1.89.5.41,1,.41.49.29,1,.29.5,1.4,1,1.4.5.62,1,.62.5-4.93,1-4.93.5,1.84,1,1.84.5.89,1,.89.5-1.41,1-1.41.5,2,1,2,.5,1.14,1,1.14.5-4.38,1-4.38.51,1.38,1,1.38.5,2.37,1,2.37.51-1.27,1-1.27c.34,0,.63,1.23,1,1.24s.72-1.52,1-1.5.72-.43,1.05-.4.92-1.66,1.25-1.61.53,1.42.85,1.48.06,3,.38,3.09,1.09-1.77,1.4-1.68,0,2.21.29,2.31,2.17-4,2.47-3.86-.17,2.3.12,2.43,1-.33,1.26-.17,1.35-.73,1.62-.56.09,1.27.35,1.46-1.47,2.82-1.22,3.05,2.57-1.66,2.79-1.41-1.48,2.11-1.27,2.38-.44.91-.26,1.2,0,.53.12.84,3.41-.8,3.53-.48-.58.94-.48,1.27-.27.75-.21,1.09,1.09.52,1.13.86.87.67.89,1-.46.76-.46,1.11-.68.69-.7,1,1.91.94,1.87,1.27-1.46.55-1.52.88-2.3.09-2.39.41.42.75.3,1.06,1.45,1.41,1.3,1.71-1.33.08-1.51.36-.85.19-1.05.45,1.31,2,1.1,2.21-1.94-.94-2.17-.73-.71.07-1,.26-.13.84-.4,1a7.94,7.94,0,0,1-.78.5c-.27.15-1-.7-1.26-.57s-.59-.12-.9,0,1,1.65.69,1.73c.31.07.13-1.81.43-1.72s.89-.17,1.19-.06-.77,3.67-.49,3.8,0,1.12.29,1.27,1.63-1.62,1.89-1.45-1,2.29-.74,2.48,2.43-2,2.67-1.75.95.07,1.16.3S354.17,76.16,354.37,76.41Zm-25.21-9.28a3.35,3.35,0,0,0,1.82.72c.52,0,.52.19,1,.19s.52.59,1,.59.52-1.13,1-1.13.52-1.58,1-1.58.52-1.45,1-1.45,1,3.67,1.37,3.63.57-1.84.9-2,.49-.65.76-.87a2,2,0,0,0,.47-.74c.15-.27-1.37-.79-1.3-1.14s.77-.23.77-.58,1.07-.68,1-1,.09-.76-.06-1-.2-.83-.45-1.05-1,.24-1.38.1-.77,1-1.18.93-.51-3.11-.91-3.11-.52,3.9-1,3.9-.52-4.9-1-4.9-.52,1.36-1,1.36-.52,1.15-1,1.15-.52,2.27-1,2.27.57-1.42.2-1,.94-.73.94-.22-4.32.51-4.32,1,1.13.51,1.13,1,.87.51.87,1,.05.51.05,1,.33.57.11,1C329.53,66.25,328.79,66.76,329.16,67.13Zm12,17.54c.26-.2,1.11-.62,1.27-.92a7,7,0,0,0,.67-1.34c.06-.3.7-1,.7-1.32s-1.19-1-1.26-1.31-1.7-.25-1.87-.54-1.2.69-1.49.47,1.17-3.59.81-3.72-1.26,1.41-1.64,1.36-.71.33-1.09.33-.52.11-1,.11-.52,1.62-1,1.62-.51-.72-1-.72-.52-1.1-1-1.1-.52-.27-1-.27-.52-.3-1-.3-.41.31-.78.67,1.31.24,1.31.76-3.06.51-3.06,1,3.9.52,3.9,1-4.9.51-4.9,1,1.36.51,1.36,1,1.15.51,1.15,1,1.23-1,1.6-.6-1.11-.12-.59-.12.52-.42,1-.42.51,4.31,1,4.31.52-1.12,1-1.12.52-.88,1-.88.52-.05,1-.05.52-.11,1.05-.11,1,2,1.37,2,0-3.52.37-3.63S340.86,84.89,341.13,84.67Z"/><path d="M411.15,47.1c.27.42-1.06-1.16-1.29-.71s1,1.06.74,1.5,1.35,1.26,1.13,1.7-3.1-1-3.33-.59,1.72,1.44,1.49,1.88.73.94.5,1.38-2.9-.94-3.13-.5,3.17,2.2,2.95,2.64-3.48-1.23-3.71-.79.62.88.39,1.32.52.83.29,1.28-1.51-.22-1.74.22-.4.35-.63.8-.95.06-1.18.51.75.95.52,1.39.48.81.25,1.25-1.55-.24-1.77.21,3.35,2.29,3.13,2.73.24.69,0,1.13-3.7-1.34-3.93-.9,2.82,2,2.59,2.46-.9.1-1.13.54-2.11-.53-2.34-.08-.28.41-.51.86-1.54-.23-1.77.21.57.86.34,1.3,2.25,1.72,2,2.16-.18.47-.41.91-.27.42-.5.86-2.45-.7-2.68-.25-.59.26-.82.7-.4.35-.63.8-.77.16-1,.61.81,1,.58,1.42,1.21,1.19,1,1.64,1.1,1.12.88,1.57-3.63-1.31-3.86-.86,1.33,1.25,1.1,1.7.14.64-.09,1.08a2.49,2.49,0,0,0-.33.87c-.12.5,1.68.42,1.68.94s-.74.51-.74,1-1.13.51-1.13,1-.29.52-.29,1-.31.52-.31,1,.81.52.81,1,1.23.52,1.23,1-3.15.52-3.15,1,4,.51,4,1-5.05.51-5.05,1,1.4.51,1.4,1,1.19.52,1.19,1,2.34.52,2.34,1-.56.52-.56,1,.16,2.21-.19,2.59-2.12-3.76-2.62-3.76-.5,1.16-1,1.16-.49.9-1,.9-.5,0-1,0-.5.11-1,.11-.5-2.09-1-2.09-.5,3.6-1,3.6-.49-2.28-1-2.28-.5,1.12-1,1.12-.5.2-1,.2-.5.16-1,.16-.5-1.53-1-1.53-.5-1.68-1-1.68-.5,2.38-1,2.38-.51-2.34-1-2.34.64,1.54.29,1.18.91.75.91.24-2.82-.52-2.82-1-1-.51-1-1,2.81-.51,2.81-1-1.65-.51-1.65-1,2-.51,2-1-3.1-.51-3.1-1,3.15-.51,3.15-1-.56-.52-.56-1-.62-.52-.62-1,.44-.51.44-1-1.56-.51-1.56-1,2.21-.52,2.21-1-1-.51-1-1,2.06-1.1,1.94-1.61-2.83.24-3.06-.2,1.71-1.44,1.48-1.88.39-.76.16-1.21-3.19,1.09-3.41.64-.67-.21-.9-.65-.16-.48-.39-.92-.42-.34-.65-.78,2.73-2,2.5-2.41-3.81,1.4-4,1,3.26-2.25,3-2.69-3.36,1.17-3.59.72.68-.91.45-1.35-.82-.14-1-.58,1.22-1.19,1-1.64,1.17-1.16.94-1.61-.94-.07-1.17-.51.32-.73.09-1.17-3,1-3.25.55.66-.9.43-1.34-2,.47-2.24,0-.31-.41-.53-.85.77-1,.54-1.41,1-1.08.79-1.52-.41-.36-.64-.8.93-1,.7-1.48.82-1,.59-1.43-.67-.22-.89-.66-3.54,1.26-3.77.82,3.4-2.32,3.17-2.76-.75-.17-1-.62-3,1-3.23.54,2.07-1.63,1.84-2.07-3.29,1.13-3.52.69,3.82-2.53,3.59-3-2.33.64-2.55.19,0-.54-.26-1-.37-.37-.6-.81,1.88-1.54,1.65-2-.05-.54-.28-1-3.7.17-3.44-.26,1.31-.46,1.81-.46.51-1.41,1-1.41.5-.2,1-.2.51,5.06,1,5.06.5-.19,1-.19.5-4.17,1-4.17.5,1.95,1,1.95.51,1.06,1,1.06.5-3,1-3,.51,2.24,1,2.24.51.71,1,.71.51-.15,1-.15.51-.64,1-.64.5,1.63,1,1.63.51-4.44,1-4.44.51,1.27,1,1.27.51-1.13,1-1.13-.17,3.28.26,3.56-.88.06-.67.51.67.24.88.69,0,.56.16,1,.23.43.43.89,1.06.06,1.26.51,2.22-.45,2.42,0,.92.13,1.13.58.26.42.47.87-1.58,1.25-1.38,1.7-.18.62,0,1.08-.06.57.14,1-1.11,1-.91,1.49-.38.72-.18,1.17,4.84-1.63,5-1.18-1.53,1.23-1.32,1.68-.63.83-.43,1.28,1.53-.14,1.73.31-1.72,1.32-1.51,1.77-.87.94-.67,1.4,1.82-2.4,2.32-2.39-.77,1.58-.57,1.13,2.43.55,2.64.1-1-1-.79-1.44,1.36.07,1.56-.38-1.24-1.11-1-1.56-.25-.66-.05-1.11-1.44-1.19-1.23-1.64,1.45.12,1.65-.33,3,.8,3.2.35-1.66-1.28-1.45-1.74,2.21.46,2.41,0-4-2.35-3.8-2.8,2.26.47,2.46,0-.48-.76-.28-1.21-1-1-.82-1.46,1.14,0,1.34-.48,3.15.87,3.35.42-2.59-1.72-2.39-2.17,2.57.6,2.77.15,0,.72.39.45-.74.67-.24.67.5-3.54,1-3.54.5.88,1,.88.5.46,1,.46.5-1,1-1,.5-.81,1-.81.5.5,1,.5.5.68,1,.68.5-2,1-2,.5,1.4,1,1.4.5,2.29,1,2.29.5-.65,1-.65.5-1.95,1-1.95.5,1.17,1,1.17.5.63,1,.63.5-2.32,1-2.32.42,2,.9,2.1S410.89,46.67,411.15,47.1Z"/><path d="M470.28,75c.21.27,1.52,0,1.71.25s-.81,1.45-.65,1.75,1.56.19,1.69.51-2,1.58-1.88,1.91,1.76.29,1.84.63-1.57,1-1.51,1.39.45.64.47,1-.68.7-.68,1,.75.66.74,1,.75.75.72,1.06,1.07.9,1,1.22-2.48.22-2.55.54.67.87.58,1.18-1.9,0-2,.28.9,1.07.76,1.36-.24.62-.41.89,1.3,1.78,1.11,2-3.7-2.15-3.92-1.91,1.87,2.63,1.64,2.85-2.32-1.67-2.57-1.46,1.33,2.88,1,3.08-2.52-2.74-2.82-2.57,1.08,3.4.77,3.55-1.79-2.33-2.11-2.2-.24,1.12-.57,1.23-.3,1.32-.64,1.41-1-1.4-1.38-1.32-.77-.72-1.12-.66-.41,1.39-.76,1.44-.49,1.8-.84,1.83-.91-3.06-1.26-3-.56,2.16-.91,2.17-.69,1-1,1-.49-2.91-1-2.91-.49,3.7-1,3.7-.5-3.54-1-3.54-.49.92-1,.92-.49.82-1,.82-.49-1.4-1-1.4-.5-.19-1-.19-.5-.8-1-.8-.49,1.08-1,1.08-.49.76-1,.76-.49-1.43-1-1.43-.49,3.91-1,3.91-.5.51-1,.51-.5-3.78-1-3.78-.49,3.32-1,3.32-.5-.73-1-.73-.5-2.06-1-2.06-.5-.05-1-.05-.5-1.43-1-1.43-.5.87-1,.87-.5,2.69-1,2.69-.5.06-1,.06-.5-.05-1-.05-.5-2.43-1-2.43-.5-.39-1-.39-.5-.19-1-.19,1,.43.63.08-.46,1.13-.46.63-1.57-.5-1.57-1-1.45-.5-1.45-1,3.71-.5,3.71-1-1.71-.5-1.71-1-.4-.49-.4-1-.11-.5-.11-1-1.63-.5-1.63-1,.73-.5.73-1,1.09-.49,1.09-1,.28-.5.28-1,.3-.5.3-1-.78-.5-.78-1-1.2-.5-1.2-1,3.06-.5,3.06-1-3.9-.49-3.9-1,4.9-.5,4.9-1-1.36-.5-1.36-1-1.15-.5-1.15-1-2.27-.5-2.27-1,.54-.5.54-1-.41-.5-.41-1,4.31-.5,4.31-1-1.13-.5-1.13-1-.87-.5-.87-1-.05-.5-.05-1-.11-.49-.11-1,2-.5,2-1-3.49-.5-3.49-1,2.21-.5,2.21-1-1.09-.5-1.09-1-.19-.5-.19-1-.16-.5-.16-1,1.49-.5,1.49-1,1.63-.5,1.63-1-2.31-.5-2.31-1,2.27-.5,2.27-1-.62-.5-.62-1,.38-.5.38-1-2.73-.5-2.73-1-1-.5-1-1,2.73-.5,2.73-1-1.6-.5-1.6-1,1.89-.5,1.89-1-3-.5-3-1,3.06-.51,3.06-1-.55-.5-.55-1-.6-.5-.6-1,.42-.51.42-1-1.51-.5-1.51-1,1.38.36,1.74,0-.52-.59,0-.59.5,1.95,1,1.95.5-2.62,1-2.62.5,2.11,1,2.11.5.67,1,.67.49-3.22,1-3.22.5-.48,1-.48.5.07,1,.07.5-.22,1-.22.5,3.23,1,3.23.5-3.91,1-3.91.5,3.82,1,3.82.5-3.41,1-3.41.5,1,1,1,.5-.65,1-.65.51,1.59,1,1.59.5,1.53,1,1.53.49-.78,1-.78.51.6,1,.6.5-3,1-3,.5,1,1,1,.5-2,1-2,.5-.08,1-.08.5,1.1,1,1.1.51,1.35,1,1.35.51-.19,1-.19c.34,0,.63,1.26,1,1.27s.57,1.17.89,1.19.64-.44,1-.41,1.08-3.52,1.4-3.47.06,4,.38,4.06.69-.46,1-.39,1.37-2.77,1.69-2.69-.08,2.59.23,2.7,1.81-2.92,2.12-2.8-1.14,4.32-.84,4.46,1.58-1.78,1.87-1.62.47.52.74.7.64.25.91.44-1,2.15-.76,2.37.21.47.44.72,2.93-1.64,3.13-1.37.46.62.64.91,1.61.07,1.76.38.55.74.67,1.07-4.44,2.16-4.35,2.49.31.44.37.78,4.11,0,4.15.35-1.81.9-1.79,1.25-1,.67-1,1,2.88.78,2.85,1.11-2.22.51-2.26.84-.77.5-.84.82,0,.61-.08.93.4.79.27,1.09-1.65-.11-1.8.18,3.42,2.73,3.25,3-1.48,0-1.68.26.35,1.3.14,1.53-3.07-2.07-3.3-1.86-.73-.11-1,.09-.1.7-.36.87-.55,0-.83.19-.42.24-.72.37-.16,1-.47,1.15,1,.89.71,1c.31.07-.13-1.84.17-1.75s.77.17,1.06.28,0,2,.24,2.15.4.65.68.8.39.55.65.72-.36,1.45-.12,1.65,0,.76.19,1,4-3,4.18-2.77S470.09,74.73,470.28,75Zm-25.41-9.52c.36.36-.35-1.61.16-1.61s.51,1.44,1,1.44.51-1.31,1-1.31.52,2.44,1,2.44.52-1.61,1-1.61.52,1.75,1,1.75.77-.38,1.11-.43,1,.55,1.32.43.4-1,.67-1.23-.28-.8-.12-1.09-1-.54-.92-.89,2.44-.2,2.44-.55-.89-.59-.95-.9,1.48-1.35,1.33-1.63-1.47,0-1.72-.19a3.08,3.08,0,0,0-1-.47c-.33-.13-.94,1.83-1.35,1.77s-.42-4.29-.83-4.29-.51,3.15-1,3.15-.51-2.8-1-2.8-.52,3.09-1,3.09-.52-3.69-1-3.69-.52,3.5-1,3.5-1.84-2.76-2.21-2.4.47,1.7.47,2.21,1.15.51,1.15,1-1.62.51-1.62,1-.86.51-.86,1,1.31.51,1.31,1,1.31.07,1.58.52S444.5,65.1,444.87,65.47Zm8.85,17.36c.26-.2-1-.67-.79-1s1.42.39,1.49,0-1.24-.44-1.24-.8,2.4-.76,2.33-1.08-1.6.08-1.78-.21,1-1.54.74-1.76-.77-.06-1.13-.19-.53-.9-.91-.95-.77.69-1.16.69-.51.8-1,.8-.52,1.18-1,1.18-.52-2.4-1-2.4-.52.88-1,.88-.52-1.81-1-1.81-.52,1.25-1,1.25-.56-.32-.93,0,2.1.4,2.1.92-4.25.51-4.25,1,3.16.52,3.16,1-2.8.51-2.8,1,3.09.51,3.09,1-3.69.51-3.69,1,2.77-.19,3.14.17-.34,2.52.18,2.52.52-1,1-1,.52-1.15,1-1.15.52,1.62,1,1.62.52.87,1,.87.52-1.32,1-1.32.52-1.72,1-1.72,1.05,3.09,1.39,3,.51-2.24.83-2.35S453.45,83.05,453.72,82.83Z"/><path d="M515.61,48.36c.3.16.45.64.74.82s-.05,1.34.24,1.53.19.84.47,1,2.58-2.22,2.85-2-.47,1.71-.21,1.94-.84,1.91-.59,2.15,1-.1,1.23.15,2.82-1.65,3-1.4-.29,1.25-.07,1.52-.45,1.27-.25,1.54.19.72.38,1,2.06-.5,2.24-.21-.4,1.11-.22,1.41-.78,1.21-.63,1.51,1,.23,1.17.53.49.54.62.84,2,0,2.11.29-1,1.15-.9,1.47-.11.78,0,1.1-3,1.49-2.94,1.81,2.14.13,2.21.46.53.56.59.89,1.4.48,1.45.81.18.7.21,1,1.35.63,1.38,1-1.45.8-1.44,1.13,1.37.71,1.37,1-2.51.67-2.52,1,1.62.77,1.6,1.1-1.85.55-1.88.88.3.71.25,1-.83.55-.88.87.65.81.58,1.13.65.87.57,1.19,1,1,.88,1.35-2.55-.07-2.66.25.62,1,.5,1.26-2-.09-2.09.22.91,1.12.76,1.43-.22.64-.38.93,1.5,1.66,1.33,2-4.06-1.71-4.23-1.44,2.36,2.31,2.18,2.58-2.7-1.15-2.89-.9,2.13,2.45,1.92,2.7-3.3-1.94-3.51-1.7,2.25,2.87,2,3.11-2.55-1.61-2.78-1.38.25,1.12,0,1.34.31,1.32.06,1.53-1.53-.9-1.78-.7-1-.36-1.26-.17.29,1.44,0,1.62.41,1.85.13,2-2.16-2.46-2.44-2.3.5,2.22.21,2.37-.13,1.26-.42,1.4-1.81-2.47-2.11-2.34.82,3.78.52,3.9-1.85-3.2-2.16-3.1-.29,1.09-.6,1.19-.39,1-.71,1.06S508,95.88,507.64,96s-.62-.07-.94,0-.7-.71-1-.66-.45,1.17-.77,1.2-.55.85-.88.87-.68-1.44-1-1.43-.59,4-.92,4-.74.52-1.06.51-.49-3.91-.82-3.94-1,3.36-1.28,3.33S498.32,99,498,99s-.34-2.18-.66-2.24-.61-.17-.93-.24-.25-1.56-.56-1.64-.81.72-1.12.62-1.46,2.46-1.77,2.35-.69-.18-1-.29-.64-.31-.94-.44.41-2.54.11-2.68-.36-.62-.66-.77-.43-.45-.71-.62-.19-.8-.47-1-1.12.68-1.39.5-1.44,1-1.7.79-1.45.79-1.7.59,1.89-3.36,1.65-3.57-1.62.93-1.86.71-.75-.14-1-.36-.55-.39-.77-.62-1.7.61-1.92.37.11-1-.09-1.27.48-1.22.28-1.47-.15-.69-.33-1-.1-.7-.27-1-1-.13-1.19-.4-1.43,0-1.59-.31,2.49-2,2.34-2.33-3.94,1-4.07.75S480.09,81,480,80.65s-1.52-.07-1.63-.39-1.33-.25-1.43-.57-2.44-.07-2.53-.4.37-.85.3-1.18-.57-.65-.63-1,4.27-1.35,4.22-1.68-1.22-.47-1.26-.81-.95-.57-1-.9-.09-.67-.1-1-.13-.67-.13-1,2.09-.6,2.1-.94-3.56-.84-3.53-1.17,2.31-.5,2.34-.83-1-.79-1-1.12-.09-.72,0-1,0-.72,0-1,1.64-.3,1.73-.62,1.76-.14,1.86-.46-2.08-1.32-2-1.64,2.4.22,2.52-.09-.37-.79-.24-1.09.6-.38.75-.68-2.22-1.85-2.06-2.15-.51-1.1-.34-1.39,2.72.9,2.89.63-1-1.43-.84-1.7,1.94.63,2.13.37-2.05-2.41-1.85-2.66,2.82,1.53,3,1.29,0-.82.2-1.06,0-.87.22-1.1.74-.11,1-.32-.54-1.6-.29-1.81,1.87,1.32,2.12,1.13-.14-1.2.13-1.39,1.61,1.32,1.88,1.14-.93-2.6-.65-2.77,1.61,1.56,1.89,1.41.83.33,1.12.18-.89-3.26-.59-3.4.43-.73.73-.86.68-.19,1-.31.58-.45.89-.55,1.6,3,1.92,2.87-.42-4-.1-4.13,1.52,3.67,1.85,3.6,0-3.57.3-3.63.84.9,1.16.86.61-.75.94-.78.8,1.56,1.13,1.54.69,1.54,1,1.53.59-.82.92-.82.61.62.93.63.8-3.11,1.13-3.09.6,1.05.93,1.08.93-1.91,1.26-1.86.75,0,1.07.08.5,1.23.82,1.3.35,1.5.67,1.58.69,0,1,.07.22,1.42.53,1.52.17,1.3.47,1.42.72-.25,1-.12,2.11-3.14,2.41-3-1.21,3.94-.92,4.09S515.32,48.2,515.61,48.36ZM495.2,63.85c-.21.25-.65.27-.83.54s-1.36,0-1.51.26-.88.42-1,.73,2.87,1.76,2.77,2.07-1.73.1-1.8.43-2.1.28-2.16.61.63.83.6,1.16,3.12.87,3.1,1.2-1.06.55-1.06.88-1.14.66-1.12,1-.24.69-.2,1,2,.33,2.09.65-.8.74-.73,1.06-1.06,1-1,1.28,1,.34,1.09.64.45.46.61.74,1.82-.52,2-.25-.79,1.2-.58,1.45.14.68.39.91-1.46,3.1-1.18,3.3,1.82-1.25,2.12-1.09.83,0,1.15.07,1-1,1.34-.94a8.44,8.44,0,0,0,.91.1c.34,0,.67-1.2,1-1.18s.5,1.52.85,1.52.52-1.36.85-1.38.89,2.43,1.22,2.37.27-1.72.59-1.81,1.16,1.54,1.47,1.41.48-.61.78-.77,1,.27,1.29.07.07-1,.32-1.28-.16-1,.07-1.26-.65-1.11-.47-1.38,2.4.82,2.56.54-.51-1-.38-1.26,2,0,2.09-.28-1-1-1-1.34.06-.64.12-1-2-.86-2-1.19,4.41-.29,4.43-.63-3.22-.75-3.22-1.09,2.87-.75,2.85-1.07-3.2-.43-3.24-.75,3.67-1.21,3.62-1.52-3.65,0-3.73-.29,2.67-1.47,2.57-1.78-1.18-.37-1.3-.67-1.35-.1-1.51-.38,1.07-1.48.89-1.75.22-1.2,0-1.45-1.55.29-1.8.06-1.62.93-1.9.73,1.07-3.14.77-3.31-1.65,1.62-2,1.49-.92.81-1.25.72-.07-3.1-.42-3.15-1.13,3.68-1.48,3.66-.53-3.68-.89-3.68-.76,1-1.09,1-.64.9-1,1-1.05-1.27-1.38-1.18-.89.06-1.21.18-1.2-.37-1.5-.21-.23,1.41-.51,1.61-.14,1.1-.4,1.33S495.43,63.59,495.2,63.85Z"/><path d="M573.13,47c.3.17-.15,1.73.15,1.91s1.47-.91,1.75-.71-1.66,3.6-1.39,3.81,1.6-1,1.87-.8-1,2.23-.75,2.45,1.67-.9,1.92-.66.07.86.31,1.11-.39,1.21-.16,1.47.66.23.88.49,3-1.46,3.17-1.19-1.06,1.64-.86,1.93-.23.94,0,1.23,1.48-.12,1.65.18-1.11,1.36-1,1.66,2.69-.62,2.84-.32.72.47.85.78-.12.84,0,1.15-2.89,1.74-2.78,2.06,1.21.25,1.3.57-.49.78-.41,1.1,4.23-.28,4.3,0-3.92,1.45-3.86,1.78,4.14,0,4.18.38-1.63.93-1.6,1.26-.28.71-.25,1-1.12.72-1.11,1-.57.65-.57,1,3.31.74,3.3,1.07-1.64.63-1.66,1-2,.49-2.07.82.68.71.63,1,3.05,1.17,3,1.5-1.15.53-1.22.86-1.28.42-1.36.74-.44.57-.53.89,1.68,1.27,1.57,1.59-1.11.37-1.23.68-1.43.14-1.57.45.46.94.31,1.24-.11.72-.26,1,1.25,1.53,1.08,1.82-1.51-.09-1.68.18-.66.38-.84.64-3-1.42-3.24-1.17,1.27,1.72,1.07,2-.08.75-.29,1,.53,1.37.31,1.61-.41.56-.64.79.37,1.43.13,1.65-1.51-.65-1.76-.44.3,1.5,0,1.7-2-1.59-2.31-1.4.39,1.74.13,1.92-1.53-1.16-1.81-1-.35.65-.64.81-.91-.34-1.2-.19-.23,1-.53,1.13-.28,1-.58,1.16-.21,1.4-.51,1.51-1.48-2.07-1.79-2-.36,1.06-.67,1.16-1.11-1.62-1.43-1.54-.32,1.41-.64,1.48-.62.21-1,.27-.35,2.2-.68,2.24-1.17-4.24-1.5-4.21S561.2,99,560.88,99s-.79-2.83-1.12-2.82-.59,3.19-.92,3.19-.58-3.8-.91-3.81-.82,3.56-1.14,3.54-.4-3-.73-3-.73.91-1,.86-.83,1.08-1.15,1-.32-1.75-.64-1.82-.38-1-.7-1.07-.94,1.14-1.25,1-1.17,1.5-1.48,1.39.49-3.23.18-3.35-1.39,1.8-1.69,1.67-1.06.71-1.35.57.74-3,.45-3.11-2.38,3-2.67,2.88,1.28-3.46,1-3.63-1,.48-1.28.31-1,.34-1.26.15.36-1.52.11-1.72-.34-.51-.59-.72.11-1-.13-1.2-1.17.42-1.4.19-1,.12-1.22-.11.7-1.43.48-1.67-3.5,2.09-3.7,1.84-.87-.24-1.06-.5,2.77-2.81,2.58-3.07-3.21,1.34-3.38,1.07.26-1,.1-1.27,1.5-1.63,1.34-1.92-.24-.59-.39-.89,1.08-1.17.94-1.47-1.06-.21-1.18-.52-2.84.33-2.95,0-.28-.67-.37-1-.16-.71-.24-1,2.27-1.23,2.2-1.55.27-.69.21-1,.1-.63.05-1,.52-.66.49-1-1.22-.51-1.24-.84-1.65-.58-1.66-.92-1.51-.68-1.51-1,3.82-.61,3.83-.94-1.73-.73-1.71-1.06-.36-.71-.33-1,0-.69,0-1-1.54-1-1.48-1.3.86-.58.93-.91,1.25-.43,1.34-.75.44-.57.54-.89.49-.54.6-.86-.54-.91-.41-1.22-.87-1.13-.74-1.43,3.13.7,3.28.4-3.27-2.45-3.11-2.74,4.71,1.89,4.88,1.6-.88-1.23-.71-1.5-.65-1.18-.47-1.44-1.5-1.93-1.3-2.19.88-.23,1.08-.48.13-.83.34-1.07,3.71,2.5,3.93,2.27-.42-1.23-.19-1.45-.17-1.09.07-1.3.44-.47.69-.67.42-.49.68-.69,1.72,1.31,2,1.12-1.51-3.32-1.25-3.49,1.77,1.56,2,1.39,0-1.29.27-1.44.5-.5.79-.65.54-.45.84-.59,1.21,1.14,1.52,1,1.16,1.33,1.47,1.21-.22-2.44.09-2.55,1.27,2,1.59,2,.39-.77.7-.85.66.24,1,.17.08-2.88.41-2.94.53-1.08.86-1.12,1,2.69,1.31,2.66.5-1.7.83-1.72.73,1.91,1.06,1.9.61-3.11.94-3.11.61,3.15.93,3.16.64-.53,1-.51.68-.57,1-.54.58.5.91.55.88-1.44,1.2-1.39.22,2.29.54,2.35.84-.88,1.16-.8.05,2.09.37,2.18,1.39-2.39,1.7-2.29-.14,2.24.17,2.36.27.85.57,1,1.91-2.78,2.21-2.65.84-.14,1.13,0S572.84,46.8,573.13,47Zm-20,17.92c-.22.25-1.57-.55-1.75-.28s1,1.23.88,1.52-3.81-1.15-3.94-.84,1.38,1.29,1.28,1.61-2.49.06-2.57.38,1.58,1.09,1.53,1.42-.67.62-.71,1-1.19.66-1.2,1,.32.77.32,1.1,3.24.59,3.25.91-1.78.78-1.74,1.1-.63.8-.57,1.12,1.42.41,1.5.72-1.4,1.15-1.3,1.45,2.73-.32,2.86,0,.62.27.78.55-.12.68.06,1-2.22,2.57-2,2.82,1.37-.09,1.62.15.23,1.09.51,1.29,2.72-3.19,3-3-1.15,4-.82,4.17,1.86-3.67,2.2-3.58.16,1.83.51,1.88.59.43,1,.46.65,1.19,1,1.19.8.57,1.13.54.28-3.35.61-3.41.92,1.48,1.24,1.39,1.36,1.66,1.67,1.54.47-1,.77-1.18-1.16-3-.88-3.19,1,.52,1.28.29,1.26.37,1.48.1.64-.35.82-.62-1.37-1.51-1.21-1.8,1.07-.06,1.21-.37,1.43-.13,1.53-.44-.57-.84-.49-1.17-.08-.64,0-1-1.74-.8-1.7-1.13,1.39-.44,1.41-.78.37-.59.37-.93,3.3-.79,3.29-1.12-2.09-.59-2.12-.91-.49-.63-.55-1-1.39-.35-1.47-.67a8.43,8.43,0,0,0-.33-.83c-.11-.32-1.37,0-1.49-.32s1.13-1.09,1-1.38-1.38.28-1.57,0,1.68-2,1.47-2.2-1.59.68-1.84.45.68-1.79.4-2-.77-.06-1.08-.23-.32-1-.64-1.11-.91.51-1.25.42-.77.66-1.12.6-.68,1.12-1,1.1-.51-2.5-.86-2.5-.65.91-1,.93-.94-1.77-1.27-1.72-.48,1.4-.81,1.49a10,10,0,0,0-.95.39c-.32.13.37,2.13.07,2.29s-2.88-3.37-3.16-3.17,1.44,3,1.19,3.2S553.38,64.62,553.16,64.88Z"/><path d="M651.83,46.64c.35.35-2.8.32-2.8.82s3.12.5,3.12,1-2.1.49-2.1,1,.22.5.22,1-.92.5-.92,1,5.07.5,5.07,1-2.56.49-2.56,1-.5.5-.5,1-1.05.5-1.05,1,3.84.5,3.84,1-4.14.5-4.14,1,3.46.5,3.46,1-4.43.5-4.43,1,1.47.5,1.47,1-1.26.49-1.26,1,5,.5,5,1-1.67.5-1.67,1,.69.49.69,1-4.07.5-4.07,1,.85.5.85,1,.73.5.73,1,2.74.5,2.74,1,1.15.5,1.15,1,.24.5.24,1-.73.5-.73,1-4.4.5-4.4,1,4.66.5,4.66,1-3,.5-3,1-1.45.5-1.45,1-.86.5-.86,1,.88.49.88,1,3.44.5,3.44,1-.93.51-.93,1,1.18.5,1.18,1,1.14.5,1.14,1-3,.5-3,1,.3.5.3,1-2,.5-2,1,3.26.5,3.26,1,.72.5.72,1-2.82.5-2.82,1-2.22.5-2.22,1,.1.5.1,1,1.88.51,1.88,1,2.69.5,2.69,1-2.11.5-2.11,1-1.57.5-1.57,1,2,.5,2,1,.89.5.89,1-2.33.5-2.33,1,1.93.9,1.57,1.26-.75,2.4-1.25,2.4-.49-1.83-1-1.83-.49,1.81-1,1.81-.49-4.58-1-4.58-.49,2.06-1,2.06-.5-2.76-1-2.76-.5,2.08-1,2.08-.49-.66-1-.66-.5-1.32-1-1.32-.49.41-1,.41-.5,3.77-1,3.77-.49-2.14-1-2.14-.5-.83-1-.83-.5,1.54-1,1.54-.5-1.92-1-1.92-1.66,3.07-2,2.71a4.29,4.29,0,0,1-.94-2c0-.5.52-.5.52-1s3.87-.51,3.87-1-1.25-.51-1.25-1,.81-.51.81-1-4.89-.5-4.89-1,4.83-.51,4.83-1-4.77-.51-4.77-1,2-.51,2-1,.39-.51.39-1,1.35-.5,1.35-1,.69-.51.69-1-3.88-.51-3.88-1,1.89-.5,1.89-1,2.33-.51,2.33-1-.88-.51-.88-1-3.73-.51-3.73-1,1.22-.51,1.22-1,1.34-.51,1.34-1,.33-.51.33-1-2.32-.51-2.32-1,1.08-.51,1.08-1,1.5-.51,1.5-1-.93-.51-.93-1,.71-.25.22-.39,2.73.66,2.59,1.13-1.65,0-1.79.47-.54.35-.68.82-3.85-.67-4-.2,2.14,1.18,2,1.65.31.61.16,1.08,1.32.92,1.17,1.39,0,.5-.18,1,1.29.91,1.15,1.38-1.81,0-2,.43,1.36.94,1.21,1.41-2.94-.39-3.08.08,1.69,1,1.55,1.51-2.16-.16-2.3.31.27.6.13,1.07-1,.21-1.12.68.73.75.58,1.22.78.75.64,1.22,1.2.89,1.06,1.36-2.9-.38-3,.1.86.78.72,1.25-2.22-.17-2.37.3,1.3.92,1.15,1.39,0,.5-.2,1,2.21,1.2,2.07,1.67-5-1-5.17-.55,3.25,2.44,2.85,2.74-1.29-3.09-1.77-3.09-.49,3.71-1,3.71-.48-4.43-1-4.43-.49,4.2-1,4.2-.48-3.46-1-3.46-.49,1.15-1,1.15-.49,1.39-1,1.39-.48-2-1-2-.49-1-1-1-.49,1.58-1,1.58-.48,2.07-1,2.07-.49-3.76-1-3.76-.5,2.55-1,2.55-1.33,1.3-1.72,1,2.75-2.14,2.61-2.61-4.4.85-4.55.38,3.92-1.73,3.78-2.2-1.2-.14-1.35-.61-1.08-.18-1.23-.65,1.47-1,1.32-1.44.07-.54-.07-1,.77-.76.62-1.23-1.38-.09-1.52-.56-1-.2-1.17-.67,1.5-1,1.36-1.45-4.64.92-4.79.45-.73-.29-.88-.76,4.2-1.81,4.06-2.28-4,.71-4.11.24.7-.73.55-1.2,2.22-1.2,2.07-1.67-.07-.49-.22-1,1.5-1,1.35-1.45-1.14-.16-1.29-.63-3.24.48-3.39,0-.21-.45-.35-.92-.09-.49-.24-1,2.64-1.33,2.5-1.8.3-.62.16-1.09.07-.54-.07-1-2.37-3.14-2.86-3-.8,3.21-.8,3.71,1.89.51,1.89,1,1.74.51,1.74,1-4.45.5-4.45,1,2,.51,2,1,.48.51.48,1,.13.51.13,1,2,.5,2,1-.87.51-.87,1-1.32.5-1.32,1-.33.51-.33,1-.37.51-.37,1,.95.51.95,1,1.43.51,1.43,1-3.67.51-3.67,1,4.69.5,4.69,1-5.89.51-5.89,1,1.63.51,1.63,1,1.39.5,1.39,1,2.72.51,2.72,1-.65.51-.65,1,.5.51.5,1-5.18.51-5.18,1,1.35.51,1.35,1,1.46.54,1.1.91-.38,0-.88,0-.5.13-1,.13-.49-2.44-1-2.44-.5,4.19-1,4.19-.5-2.65-1-2.65-.5,1.3-1,1.3-.5.23-1,.23-.5.19-1,.19-.5-1.79-1-1.79-.5-1.95-1-1.95-.5,2.77-1,2.77-.5-2.73-1-2.73-.5.74-1,.74-.5-.45-1-.45-.51,3.29-1,3.29-2,1-2.32.6,2.72-1.82,2.72-2.32-1.92-.5-1.92-1,2.28-.5,2.28-1-3.62-.5-3.62-1,3.68-.5,3.68-1-.66-.49-.66-1-.72-.5-.72-1,.51-.5.51-1-1.81-.5-1.81-1,2.58-.49,2.58-1-1.22-.5-1.22-1,2.35-.5,2.35-1-3.15-.5-3.15-1,2.53-.5,2.53-1,.81-.5.81-1-3.88-.49-3.88-1-.57-.5-.57-1,.08-.5.08-1-.26-.5-.26-1,3.88-.5,3.88-1-4.69-.5-4.69-1,4.58-.5,4.58-1-4.1-.5-4.1-1,1.2-.5,1.2-1-.78-.5-.78-1,1.91-.5,1.91-1,1.84-.49,1.84-1-.94-.5-.94-1,.71-.5.71-1-3.66-.5-3.66-1,1.16-.5,1.16-1-2.33-.5-2.33-1-.1-.5-.1-1,1.32-.5,1.32-1,1.62-.5,1.62-1-.23-.5-.23-1,1.51-.5,1.51-1,1.38-.5,1.38-1-.57-.5-.57-1-4.35-.5-4.35-1,4.77-.5,4.77-1-.7-.5-.7-1S589,55,589,54.5s3-.5,3-1-4-.5-4-1,5.31-.51,5.31-1-2.75-.5-2.75-1,.26-.5.26-1-.19-.51-.19-1,2.78-.5,2.78-1-.92,1.35-.56,1-1.58-3.08-1.09-3.08l1,0c.49,0,.49-1.64,1-1.64s.49-.23,1-.23.49,5.89,1,5.89.49-.21,1-.21.49-4.87,1-4.87.49,2.28,1,2.28.49,1.23,1,1.23.49-3.47,1-3.47.49,2.61,1,2.61.49.83,1,.83.49-.18,1-.18.49-.74,1-.74.5,1.89,1,1.89.48-5.18,1-5.18.49,1.49,1,1.49.5-1.32,1-1.32.49,4.41,1,4.41-.76,0-.36.26-.13-.87,0-.41-.12.57,0,1,.2.45.37.91,1.2.09,1.37.56,2.58-.43,2.75,0,1,.15,1.2.61.25.44.42.9-2,1.25-1.8,1.71-.29.63-.12,1.09-.15.58,0,1.05-1.41,1-1.24,1.51-.53.72-.36,1.18,5.73-1.58,5.9-1.12-1.91,1.23-1.74,1.69-.83.83-.66,1.3,1.76-.12,1.93.34-2.14,1.31-2,1.78-1.12.93-1,1.4,5.12-1.36,5.29-.89-1.39,1-1.22,1.49-2.5,1.45-2.33,1.91,1.59-.06,1.76.4-1.21,1-1,1.44,1.91-.18,2.08.29.72.26.89.72,2.14-.25,2.31.21-1.33,1-1.16,1.48-3.18,1.69-3,2.16,2.4-.36,2.57.11-2.24,1.35-2.07,1.81,5.23-1.39,5.4-.92-2.3,1.37-2.13,1.84-.5-.14,0-.16-2.42-.2-2.25-.68,1.3-.07,1.47-.55,3.71.79,3.88.31-3.19-1.68-3-2.16,3,.54,3.18.06,1.17-.12,1.34-.59.5-.36.67-.84-3.71-1.86-3.54-2.34,1.14-.13,1.31-.61.68-.3.85-.78-.94-.87-.77-1.35-.73-.8-.56-1.27.73-.28.9-.76.92-.21,1.09-.69-2.06-1.28-1.89-1.75,1.7.07,1.87-.41,2.68.42,2.85-.06-.54-.73-.37-1.21-2-1.24-1.8-1.72,1.46,0,1.63-.49.86-.23,1-.71-2.38-1.39-2.21-1.87,2.5.35,2.67-.12.65-.31.82-.79-.5-.72-.33-1.2.13-.49.3-1,1.37,0,1.54-.53.55-.34.72-.82-2.84-1.56-2.67-2-1-.88-.78-1.37-.32-.65-.15-1.13,3.62,1.5,4,1.2-.35,1.49.14,1.49.49-2.67,1-2.67.49,2.94,1,2.94.49-3.69,1-3.69.49-.74,1-.74.48,2.79,1,2.79.49,1.2,1,1.2.49-4.55,1-4.55.49,2.63,1,2.63.48.75,1,.75.49-1.08,1-1.08.48-2.51,1-2.51.49.57,1,.57.49,1.76,1,1.76.49-1.58,1-1.58.49-.39,1-.39.49,3.08,1,3.08.49-1.21,1-1.21.64,1.33,1.13,1.27S651.48,46.29,651.83,46.64Z"/><path d="M707.61,47.28c.3.14-.14,1.81.16,2s.33.75.62.92,2.15-2.16,2.43-2,.39.79.66,1,1-.09,1.29.12-1.38,2.79-1.12,3-.62,1.58-.37,1.81,1.56-.71,1.79-.47.07.79.3,1-.2.94,0,1.21.66.24.85.52,3.79-1.82,4-1.55-2.6,2.44-2.44,2.72-.88,1.16-.72,1.45,3.17-1,3.31-.69.8.38.93.68-2.43,1.73-2.3,2-.46.79-.35,1.09,2.23-.13,2.33.18.79.44.88.75.18.63.25.95-2.66,1.23-2.59,1.55,2.3,0,2.36.33c-.47.16-.45-2.12-1-2.12s-.49,2.34-1,2.34-.49-.78-1-.78-.49-1.13-1-1.13-.5.38-1,.38-.49,1.5-1,1.5-.49-1.52-1-1.52-.49,0-1,0-.49-.17-1-.17-.49,1.24-1,1.24-.49,1.9-1,1.9-.5.51-1,.51-.5-2.17-1-2.17-.5-2.31-1-2.31-.5,2.64-1,2.64-.5-1.77-1-1.77-.12.37-.6.24c-.14-.32,1.24-.34,1.07-.63s-3.95,1.74-4.15,1.46,1.31-1.84,1.08-2.09-.23-.82-.49-1-.1-1.22-.39-1.41-2.18,2.46-2.49,2.31.75-3.5.42-3.61-1.47,2.6-1.81,2.52-.14-3.83-.49-3.87-.93,1.18-1.28,1.18-.95-1-1.29-1,0,4.24-.37,4.32-.94-1.22-1.26-1.1-.3.76-.6.93-2.56-2.45-2.84-2.24-.27,1.16-.52,1.41-.12,1-.34,1.32,1.54,1.83,1.37,2.1.6.88.46,1.17,0,.46-.12.76-.75.23-.84.54-3.77-.33-3.84,0,3.74,1.35,3.69,1.67-2.56.27-2.59.59-1.28.6-1.3.93-.75.71-.75,1,.75.72.77,1,2.94.45,3,.77-.72.69-.67,1,1.09.39,1.15.69,1,.25,1.14.55-2.25,1.36-2.14,1.66.48.49.62.77-1.11,1.44-.94,1.71,2.62-1,2.81-.78.79,0,1,.25-1.13,2.22-.85,2.43-.28,2.08,0,2.25a11.36,11.36,0,0,0,1.3.52c.32.12,1.32-1.23,1.67-1.15s1-2.11,1.36-2.08.53,1.83.89,1.83.86,1.31,1.19,1.27.5-1.8.83-1.88.4-.87.72-1,1.42,1.57,1.73,1.41-.07-1.57.22-1.76-.72-1.86-.45-2.08,1.45.78,1.69.52-.84-1.36-.63-1.64,3.61,1.58,3.79,1.28-1.13-1.52-1-1.84c.48-.14.52,2.33,1,2.33s.5-1.76,1-1.76.5.56,1,.56.5,1.12,1,1.12.49-.35,1-.35.49-3.19,1-3.19.5,1.8,1,1.8.49.71,1,.71.5-1.3,1-1.3.5,1.62,1,1.62.49-2.65,1-2.65.49-.45,1-.45.49.44,1,.44.5,3.27,1,3.27.5-1,1-1,.5.68,1,.68,1.3-4.16,1.77-4c0,.31-2.51,2.6-2.57,2.91s3.79,1.54,3.71,1.85-1.83.24-1.92.55-.51.53-.6.84-1.28.23-1.39.53-.76.36-.88.65,2.77,1.89,2.64,2.19-1.73-.07-1.87.22-2-.37-2.18-.09.35.88.19,1.16,2.31,2.25,2.13,2.52-1.24,0-1.43.26-1.32-.12-1.53.14-.64.35-.86.6,1,1.86.74,2.1-1.16-.12-1.41.11-1.35-.48-1.6-.26,0,1-.28,1.25-.43.6-.7.8.41,1.93.13,2.11-1.33-.73-1.63-.56-.78,0-1.08.21-2-2.64-2.34-2.5.27,2.1,0,2.23-.46.63-.78.75-.23,1.46-.55,1.57-.66.3-1,.4-.4,1.43-.73,1.51-1.05-1.27-1.38-1.2-.49,1.45-.82,1.5-1.07-2.34-1.4-2.3-.52,1.71-.86,1.74-.83-1.72-1.17-1.7-.66.41-1,.42-.68-.72-1-.72-.67.77-1,.76-.72.79-1.05.77-.8,1.15-1.13,1.12-.44-2.49-.77-2.53-.79.79-1.12.74-.33-1.91-.65-2-.9,1.12-1.22,1.05-.67-.08-1-.17-1.28,1.81-1.6,1.71.76-4.3.45-4.41-1.76,2.76-2.07,2.64.54-2.86.24-3-2,2.53-2.27,2.38,1.23-3.59.94-3.76-2.39,2.72-2.66,2.54,1.07-2.79.8-3-1.07.43-1.33.23-1.25.52-1.51.3.6-1.65.36-1.88.18-1,0-1.26-1.38.49-1.6.24-1.77.66-2,.4,2.1-2.46,1.9-2.73-2.12.77-2.3.5-1.27,0-1.45-.26,2.22-2.07,2.05-2.36-3.63,1.23-3.78.93,2.93-2.18,2.78-2.48-1.1-.18-1.23-.49-1-.29-1.14-.6,1.12-1.07,1-1.39,0-.63-.09-1,.61-.78.53-1.11-1.2-.32-1.28-.65-.89-.46-1-.79,1.33-.85,1.29-1.18-4-.13-4.08-.46-.6-.68-.63-1,3.79-1,3.77-1.28-3.41-.54-3.42-.87.73-.72.73-1.05,2.1-.65,2.11-1,.08-.64.1-1,1.49-.51,1.51-.84-.82-.7-.78-1-2.64-1-2.59-1.34.06-.71.12-1,.18-.69.25-1,2.55-.08,2.63-.4.54-.49.63-.81.37-.52.48-.83.75-.36.87-.67-.86-1-.73-1.29-1.2-1.24-1.06-1.54-1-1.29-.86-1.59,3.62,1.22,3.78.94-1.18-1.43-1-1.71,0-.78.21-1.05.29-.62.49-.88-.85-1.59-.64-1.84,1-.08,1.25-.33,1.28.27,1.51,0,.67-.26.91-.48.68-.2.94-.41,0-1,.27-1.24-.15-1.4.12-1.59,2.27,2.22,2.55,2-1.48-3.75-1.19-3.92,3,4,3.26,3.9-.09-1.51.21-1.65.12-1.33.42-1.46-.17-2.42.14-2.53.89.28,1.21.18.59-.63.91-.72,1.72,4.08,2,4,.35-1.25.68-1.31.47-1,.8-1.05.65-.14,1-.19.64-.18,1-.21.78,2,1.11,2,.5-3.58.84-3.59.7,2.23,1,2.23.69-1.1,1-1.09.7-.16,1-.14.71-.12,1-.09.51,1.58.85,1.62.38,1.72.71,1.78,1-2.21,1.38-2.14.11,2.38.44,2.46.74-.46,1.06-.37.47.54.79.65,1.53-2.42,1.85-2.3,1-.64,1.34-.51S707.3,47.13,707.61,47.28Z"/><path d="M742.83,84.13c.37.36-.67-.93-.16-.93s.51,4.3,1,4.3.51-.31,1-.31.51-2.11,1-2.11.51-1.1,1-1.1.51,2.69,1,2.69.52-1.44,1-1.44.51,1.4,1,1.4.51-1.78,1-1.78.52-1,1-1,.51.45,1,.45.51.84,1,.84.51.3,1,.3.51-1.58,1-1.58-.19,2,.18,2.35-.45-.38-.45.12,2.23.51,2.23,1-.52.5-.52,1-1.9.5-1.9,1,3.14.51,3.14,1-4.13.5-4.13,1,3.75.5,3.75,1-1.66.5-1.66,1-.49.5-.49,1,2.9.5,2.9,1-.43.51-.43,1,.37,2.25,0,2.61-2.1-2.33-2.61-2.33-.5-1.57-1-1.57-.5,1.58-1,1.58-.5-.48-1-.48-.5-.74-1-.74-.5.35-1,.35-.5,4.08-1,4.08-.5-3.45-1-3.45-.51-1.34-1-1.34-.51,3.2-1,3.2-.51.55-1,.55-.5-2.88-1-2.88-.5-.7-1-.7-.51,2.11-1,2.11-.51.62-1,.62h-1c-.5,0-.5-2.83-1-2.83s-.5,2.09-1,2.09-.5-2.08-1-2.08-.5,2.31-1,2.31-.5-.77-1-.77-.51-1.12-1-1.12-.51.37-1,.37-.5,1.48-1,1.48-.51-1.49-1-1.49-.5,0-1,0-.51-.17-1-.17-.51,1.22-1,1.22-.51,1.87-1,1.87-.51.5-1,.5-.51-1.72-.87-2.07,2.33-.35,2.33-.85-2.59-.5-2.59-1,1.74-.5,1.74-1-.18-.5-.18-1,.76-.5.76-1-4.22-.49-4.22-1,2.14-.5,2.14-1,.41-.5.41-1,.88-.5.88-1-3.2-.49-3.2-1,3.44-.5,3.44-1-2.88-.5-2.88-1,3.69-.5,3.69-1-1.22-.5-1.22-1,1-.5,1-1-4.13-.49-4.13-1,1.39-.5,1.39-1-.57-.5-.57-1,3.38-.5,3.38-1-.7-.5-.7-1-.61-.5-.61-1-2.28-.5-2.28-1-1-.5-1-1-.2-.5-.2-1,.61-.5.61-1,3.66-.5,3.66-1-3.88-.49-3.88-1,2.47-.5,2.47-1,1.2-.5,1.2-1,.72-.5.72-1-.73-.5-.73-1-2.87-.5-2.87-1,.78-.5.78-1-1-.5-1-1-.94-.5-.94-1,2.51-.5,2.51-1-.24-.5-.24-1,1.63-.5,1.63-1-2.71-.5-2.71-1-.6-.5-.6-1,2.35-.5,2.35-1,1.84-.5,1.84-1-.08-.5-.08-1-1.56-.5-1.56-1-2.24-.5-2.24-1,1.75-.51,1.75-1,1.31-.5,1.31-1-1.7-.5-1.7-1-.74-.51-.74-1,1.94-.5,1.94-1-1.66-.86-1.31-1.22.71-2,1.21-2,.5,1.53,1,1.53.49-1.51,1-1.51.5,3.81,1,3.81.49-1.71,1-1.71.5,2.3,1,2.3.5-1.74,1-1.74.5.56,1,.56.5,1.09,1,1.09.49-.34,1-.34.5-3.14,1-3.14.5,1.78,1,1.78.5.69,1,.69.5-1.28,1-1.28.51,1.6,1,1.6,1.48-2.62,1.83-2.27a3.51,3.51,0,0,1,.8,1.84c0,.49-.43.49-.43,1s-3.22.5-3.22,1,1,.5,1,1-.67.5-.67,1,4.07.49,4.07,1-4,.5-4,1,4,.5,4,1-1.7.49-1.7,1-.33.5-.33,1-1.12.5-1.12,1-.57.49-.57,1,3.23.5,3.23,1-1.58.49-1.58,1-1.93.5-1.93,1,.73.49.73,1,3.1.5,3.1,1-1,.5-1,1-1.12.5-1.12,1-.27.5-.27,1,1.93.5,1.93,1-.9.5-.9,1-1.25.49-1.25,1,.78.5.78,1,.21.5.21,1,1.79.5,1.79,1-1.31.5-1.31,1-.34.49-.34,1-3.22.5-3.22,1,2,.5,2,1,.4.5.4,1,1.27.5,1.27,1,.09.5.09,1,1.25.5,1.25,1-1.44.5-1.44,1,1.31.51,1.31,1-2.44.5-2.44,1,.37-.56.81-.33S742.48,83.78,742.83,84.13Z"/><path d="M777.94,46.23c.35.35,2,.73,2,1.22s0,.49,0,1-.07.49-.07,1-4.54.5-4.54,1,.52.5.52,1,1.35.49,1.35,1,2.33.5,2.33,1-.18.5-.18,1-1.24.49-1.24,1,.41.49.41,1-2.29.49-2.29,1-.48.49-.48,1,3.71.49,3.71,1-.84.49-.84,1-1.15.49-1.15,1,2,.49,2,1-1.25.49-1.25,1-1.35.5-1.35,1,1.65.5,1.65,1,1.08.5,1.08,1-.34.5-.34,1-.76.5-.76,1,.61.49.61,1-.58.5-.58,1,1.72.5,1.72,1-3.58.5-3.58,1,3.17.49,3.17,1-4.57.5-4.57,1,0,.5,0,1c0,.34,2.22.68,2.25,1s-1.44.91-1.39,1.23,3,.12,3,.43-2.62,1.56-2.51,1.86,4.13-1.21,4.29-.92-3.26,2.81-3.07,3.07,3-1.9,3.22-1.69.43-.21.7,0-1.28,4.21-1,4.32,1,0,1.26,0,1-2,1.34-2,.58-1.07.91-1.07.77,2.69,1.07,2.66.5-1.52.8-1.58,1.09,1.18,1.38,1.08-.09-1.9.18-2-.19-1,0-1.25.62,0,.82-.2,1,0,1.2-.25.57-.44.7-.75-1.31-1-1.22-1.37,2.81,0,2.86-.38.19-.74.21-1.08-2.21-.75-2.21-1.09c0-.5.52-.5.52-1s1.92-.49,1.92-1-3.18-.49-3.18-1,4.18-.5,4.18-1-3.79-.5-3.79-1,1.68-.5,1.68-1,.49-.5.49-1-2.93-.5-2.93-1,.44-.49.44-1-.68-.49-.68-1,3-.49,3-1,1.58-.49,1.58-1-1.59-.49-1.59-1,.48-.49.48-1,.76-.49.76-1-.36-.49-.36-1-4.12-.49-4.12-1,3.49-.5,3.49-1,1.34-.5,1.34-1-3.23-.5-3.23-1-.55-.5-.55-1,2.91-.5,2.91-1,.71-.49.71-1-2.14-.5-2.14-1-.62-.5-.62-1v-1c0-.49,2.85-.49,2.85-1s-2.1-.5-2.1-1,1.09.94,1.44.59-1.1-1.67-.6-1.67.5.78,1,.78.5,1.12,1,1.12.5-.37,1-.37.5-1.49,1-1.49.5,1.5,1,1.5.5,0,1,0,.5.17,1,.17.5-1.23,1-1.23.5-1.89,1-1.89.5-.5,1-.5.5,2.15,1,2.15.5,2.29,1,2.29.5-2.62,1-2.62.5,1.77,1,1.77-.38-1,0-.61-1.2-.54-1.2,0,4.26.49,4.26,1-2.16.49-2.16,1-.41.5-.41,1-.89.5-.89,1,3.23.49,3.23,1-3.48.5-3.48,1,2.91.5,2.91,1-3.72.49-3.72,1,1.23.49,1.23,1-1.05.49-1.05,1,4.17.49,4.17,1-1.41.49-1.41,1,.58.49.58,1-3.41.49-3.41,1,.71.49.71,1,.61.49.61,1,2.31.5,2.31,1,1,.5,1,1,.21.5.21,1-.62.5-.62,1-3.7.5-3.7,1,3.92.49,3.92,1-2.49.5-2.49,1-1.22.5-1.22,1-.72.5-.72,1,.74.49.74,1,2.89.5,2.89,1-.78.5-.78,1c0,.33,1,.71,1,1s.92.77.9,1.09-2.58.51-2.61.84.18.69.14,1-1.72.39-1.77.71,2.57,1.16,2.5,1.48.44.84.36,1.16-2.46,0-2.56.36-1.94,0-2.05.31-.11.55-.24.85,1.23,1.17,1.09,1.47,1.74,1.61,1.59,1.9-1.88-.24-2.05,0-1.43-.18-1.6.09,1.08,1.47.89,1.73.21,1,0,1.23-1.9-.76-2.11-.52.62,1.42.4,1.65.86,1.87.63,2.09-1.55-.67-1.8-.47.41,1.64.15,1.84-2.78-2.73-3-2.55.45,1.78.17,2-1.67-1.7-2-1.54.3,1.82,0,2-.82-.23-1.13-.09-1-.78-1.29-.66-.44.54-.76.65.35,3.22,0,3.32-1.14-1.54-1.47-1.45-.78-.53-1.11-.46-.4,1.4-.73,1.46-.89-1.49-1.22-1.45-.36,2.7-.69,2.73-.68.52-1,.54-.74-.4-1.08-.38-.71-3.24-1.05-3.24-.63,1-1,1-.59-.7-.91-.72-1,4-1.34,4-.2-4.11-.52-4.15-1.29,3.86-1.61,3.81-.39-1.81-.71-1.88-.59-.48-.9-.56-.32-1.26-.64-1.36-.4-.74-.71-.85-1.79,2.82-2.09,2.7,0-1.74-.33-1.87.29-2,0-2.18-.89.36-1.18.19-2.27,2.29-2.55,2.1-.05-1.27-.32-1.47.14-1.32-.12-1.53-.32-.65-.57-.88-1.89.89-2.12.64.17-1.15-.05-1.41.54-1.32.34-1.59-1-.08-1.23-.36-.56-.46-.74-.75-1.95.27-2.11,0,.82-1.26.68-1.56,0-.78-.12-1.08,2.79-1.78,2.68-2.09-2.1.1-2.2-.21-.58-.51-.67-.83-1.41-.34-1.49-.67-.24-.66-.3-1-1.38-.5-1.43-.83,1.34-.91,1.31-1.24-1.4-.58-1.43-.91,2.4-.86,2.38-1.2-1.65-.61-1.66-1,1.76-.7,1.76-1c0-.5-.37-.5-.37-1s.73-.49.73-1-.77-.49-.77-1-.81-.5-.81-1-1.19-.5-1.19-1,2.42-.5,2.42-1-.89-.5-.89-1,1.83-.5,1.83-1-1.27-.49-1.27-1-.08-.49-.08-1-2.07-.49-2.07-1,4.28-.49,4.28-1-3.18-.49-3.18-1,2.82-.49,2.82-1-3.12-.49-3.12-1,3.73-.49,3.73-1-3.53-.49-3.53-1,2.9-.5,2.9-1-1-.5-1-1-1.17-.5-1.17-1,1.64-.5,1.64-1,.87-.5.87-1-1.32-.49-1.32-1-1.74-.5-1.74-1,3.16-.5,3.16-1-2.15-.5-2.15-1-1-.49-1-1,2.94-.5,2.94-1-3.55-1.94-3.2-2.3,1.8,3,2.3,3,.5-.93,1-.93.5-.82,1-.82.5,1.41,1,1.41.5.2,1,.2.5.8,1,.8.49-1.09,1-1.09.5-.77,1-.77.5,1.45,1,1.45.5-3.95,1-3.95.5-.52,1-.52.49,3.82,1,3.82.5-3.35,1-3.35.5.73,1,.73.75,2.19,1.23,2S777.59,45.88,777.94,46.23Z"/><path d="M855.94,75.13c.21.27,1.62-.12,1.8.16s-2.76,2.48-2.6,2.78,3-.64,3.13-.32-3.07,1.88-3,2.21,1.22.26,1.3.6,2,.33,2,.68-3.12,1-3.09,1.34.16.54.16.89,3.71.74,3.69,1.06-3.66.36-3.69.68.17.57.12.88.18.6.11.91.82.84.72,1.14,2.27,1.59,2.15,1.88-1.39.24-1.54.52-2.85-.88-3-.61.35.87.16,1.13,1,1.64.82,1.89.47,1.5.23,1.72-1.28-.29-1.53-.08-.55.56-.84.76-.65.41-1,.58-1.77-1.87-2.09-1.71-.17,1.13-.5,1.27-.82-.39-1.15-.27-.89-.87-1.23-.78,0,2.61-.34,2.68-.36,2-.7,2.09l-1.12.14c-.34.05-.77,0-1.12.06s-1-4.43-1.38-4.4-.6.54-1,.55-.63,1.35-1,1.35-.49,2.31-1,2.31-.5-.18-1-.18-.49-1.22-1-1.22-.49.4-1,.4-.5-2.27-1-2.27-.5-.47-1-.47-.49,3.68-1,3.68-.49-.83-1-.83-.49-1.14-1-1.14-.5,1.93-1,1.93-.5-1.24-1-1.24-.5-1.33-1-1.33-.5,1.63-1,1.63-.49,1.07-1,1.07-.49-.33-1-.33-.49-.75-1-.75-.49.6-1,.6-.49-.58-1-.58-.49,1.71-1,1.71-.49-3.55-1-3.55-.49,3.14-1,3.14-.49-4.52-1-4.52-.49,0-1,0-.49,2.2-1,2.2-.5-1.5-1-1.5-.5,2.88-1,2.88.65-2,.3-2.39-3.72.8-3.72.3,4.21-.5,4.21-1-3.49-.5-3.49-1-.44-.5-.44-1,4.3-.5,4.3-1-.31-.49-.31-1-2.11-.5-2.11-1-1.1-.5-1.1-1,2.69-.5,2.69-1-1.44-.49-1.44-1,1.4-.5,1.4-1-1.78-.5-1.78-1-1-.5-1-1,.45-.5.45-1,.84-.5.84-1,.3-.49.3-1-1.58-.5-1.58-1,2.7-.5,2.7-1,.08-.5.08-1-2.23-.5-2.23-1,.52-.5.52-1,1.89-.5,1.89-1-3.14-.5-3.14-1,4.14-.5,4.14-1-3.76-.5-3.76-1,1.67-.5,1.67-1,.49-.49.49-1-2.91-.5-2.91-1,.44-.5.44-1-.67-.5-.67-1,3-.5,3-1,1.56-.5,1.56-1-1.57-.5-1.57-1,.47-.5.47-1,.75-.5.75-1-.36-.5-.36-1-4.07-.5-4.07-1,3.45-.5,3.45-1,1.33-.5,1.33-1-3.19-.5-3.19-1-.55-.5-.55-1,2.87-.5,2.87-1,.71-.5.71-1-2.11-.5-2.11-1-.62-.5-.62-1v-1c0-.5,2.82-.5,2.82-1s-2.08-.5-2.08-1,2.08-.51,2.08-1-2.31-.5-2.31-1,.22-.16.57-.52,0,1.31.51,1.31.5-.36,1-.36.5-1.48,1-1.48.5,1.49,1,1.49.5.05,1,.05.5.16,1,.16.5-1.22,1-1.22.49-1.86,1-1.86.5-.5,1-.5.5,2.13,1,2.13.5,2.27,1,2.27.5-2.59,1-2.59.5,1.74,1,1.74.49-.18,1-.18.5.76,1,.76.5-4.22,1-4.22.5,2.14,1,2.14.5.41,1,.41.5.87,1,.87.5-3.19,1-3.19.5,3.44,1,3.44.5-2.88,1-2.88.5,3.69,1,3.69.51-1.22,1-1.22.5,1,1,1,.5-4.13,1-4.13c.34,0,.68,1.4,1,1.41s.72-.55,1-.53.39,3.41.71,3.44.67-.63,1-.59.7-.51,1-.45,1.1-2.12,1.42-2,1-.76,1.28-.67.81,0,1.12.13.54.84.84,1-.84,3.61-.54,3.75,2.36-3.16,2.65-3-.65,2.47-.37,2.65-.21,1.31.05,1.51-.05.86.2,1.09.88-.18,1.11.07S855,51,855.23,51.28s-.2,1.06,0,1.35,1.25.19,1.4.5,1.21.41,1.34.73-2.14,1.51-2.05,1.84.41.6.48.94-1.5.87-1.46,1.21,2.77.42,2.79.77.63.74.63,1.09-2.36.64-2.38,1-1.87.39-1.92.72a7.36,7.36,0,0,1-.06.82c-.07.33,1.4.92,1.3,1.23s1.9,1.4,1.78,1.71-1.88,0-2,.25-1.41-.13-1.59.15,1.07,1.47.87,1.73.15,1-.06,1.24-1.81-.91-2-.69.46,1.45.21,1.65.51,2,.24,2.17-1.41-.92-1.69-.77,0,1.69-.31,1.81-2-3.31-2.27-3.21,0,1.73-.3,1.81c.32.07-.1,2.27.2,2.36s1.08-1.48,1.38-1.37.33.73.62.86,0,1.2.26,1.35.59-.06.86.12,2.34-2.19,2.59-2-.63,1.78-.4,2-.09.88.13,1.12S855.75,74.87,855.94,75.13Zm-25.39-9.5c.36.37-.19-1.67.33-1.67s.51,3.65,1,3.65.52-3,1-3,.52,3.56,1,3.56.51-1.09,1-1.09.52-1.87,1-1.87,1.06,3.18,1.4,3.14a8.68,8.68,0,0,0,1.49-.49c.39-.14-1.06-3.52-.79-3.75s3.24,1.79,3.4,1.49a8.6,8.6,0,0,0,.29-1.51,10.85,10.85,0,0,0-.16-1.31c0-.37-1-.78-1.1-1.09s-2.57.45-2.72.16.93-.8.68-1,.76-3,.38-3.12-1.18.45-1.59.39-.87,1.74-1.28,1.74-.52,1.36-1,1.36-.52-1.08-1-1.08-.51.1-1,.1h-1c-.52,0-.52-2.51-1-2.51s-1,.72-1.35,1.09a2.16,2.16,0,0,0-.79,1.34c0,.51-1.1.51-1.1,1s2.52.51,2.52,1,1.91.51,1.91,1,0,.51,0,1-.35-.14-.19.35S830.18,65.27,830.55,65.63ZM839.7,83c.26-.2-1-.8-.83-1.1s3.6.77,3.66.42-2.85-.88-2.85-1.24,3.47-1.13,3.4-1.46-1.36-.7-1.53-1-1.76.69-2,.47.8-3.25.44-3.38a10.76,10.76,0,0,0-1.48-.21c-.33-.05-1,3.63-1.34,3.63s-.52-3.63-1-3.63-.52.24-1,.24-.51.29-1,.29-.52,1-1,1-.52,2.66-1,2.66-.52-1.19-1-1.19-2-2.77-2.34-2.41.21,1.83.21,2.35,1.83.51,1.83,1,1.36.52,1.36,1-1.09.51-1.09,1,.11.51.11,1,0,.51,0,1-2.46,1.66-2.09,2,1.5-.55,2-.55.52.66,1,.66.52,1.11,1,1.11.52-2.52,1-2.52.52-1.91,1-1.91.52,0,1,0,.53.07,1,.07,1.07,4.46,1.42,4.41,1.07-.72,1.4-.83S839.43,83.23,839.7,83Z"/><path d="M174.17,51.61s6.61,16.66-10.2,25.14c-16.2,6.67-18.6,4.27-18.6,4.27s.9,29.41,8.7,37.21,0,3,0,3l7.5,1.46s3.3,3.34,1.5,5.44-4.67.9-5.7-2.4c-4.8,2.1-11.1,7.2-20.4.3s-11.71-20.1-11.71-20.1l-20.7,6s-3.6,17.4-17.41,22.5-22.5-5.4-24-5.1-4.2,4-5.4,6.5-9,10.91-16.51,6.4-3.9-13.5-3.9-13.5,2.47-4.5-.86-8.4-9.3,5.7-9.3,5.7-6.64,9-16.25,7.5-9.3-1.8-10.8-6.3,10.2-21.3,12.91-21.3,12,1.84,12,1.84l.9-1.84,4.5,1.84s24-41.45,29.41-42.35,36.31-10.21,44.41-9.91a5.56,5.56,0,0,1,3.9-6.9S88.05,3.9,144.77,0C176.28,3.6,182.28,43.81,174.17,51.61Z"/></g></g></svg>