<svg width="279" height="71" viewBox="0 0 279 71" fill="none" xmlns="http://www.w3.org/2000/svg">
<path d="M92 30.9V26.616C92 26.016 91.676 25.716 91.028 25.716H88.076V31.8H91.028C91.676 31.8 92 31.5 92 30.9ZM92 40.656V36.192C92 35.88 91.928 35.664 91.784 35.544C91.64 35.4 91.388 35.328 91.028 35.328H88.076V41.556H91.028C91.676 41.556 92 41.256 92 40.656ZM83 22.188H92.504C95.552 22.188 97.076 23.508 97.076 26.148V30.18C97.076 31.956 96.536 33.072 95.456 33.528C96.536 33.936 97.076 34.968 97.076 36.624V41.088C97.076 43.752 95.552 45.084 92.504 45.084H83V22.188Z" fill="#04060F"/>
<path d="M107.681 27.264H112.613V45.084H107.609V43.32C107.249 44.496 106.301 45.084 104.765 45.084H103.901C101.093 45.084 99.6891 43.752 99.6891 41.088V31.26C99.6891 28.596 101.093 27.264 103.901 27.264H104.765C106.373 27.264 107.345 27.936 107.681 29.28V27.264ZM105.701 41.304H106.529C107.249 41.304 107.609 40.92 107.609 40.152V32.196C107.609 31.428 107.249 31.044 106.529 31.044H105.701C105.053 31.044 104.729 31.344 104.729 31.944V40.404C104.729 41.004 105.053 41.304 105.701 41.304Z" fill="#04060F"/>
<path d="M123.434 27.264H124.334C127.142 27.264 128.546 28.584 128.546 31.224V41.088C128.546 43.752 127.142 45.084 124.334 45.084H123.434C121.85 45.084 120.89 44.412 120.554 43.068V45.084H115.622V21H120.626V29.028C120.986 27.852 121.922 27.264 123.434 27.264ZM123.506 40.404V31.944C123.506 31.608 123.434 31.38 123.29 31.26C123.146 31.116 122.894 31.044 122.534 31.044H121.67C120.974 31.044 120.626 31.428 120.626 32.196V40.152C120.626 40.92 120.974 41.304 121.67 41.304H122.534C123.182 41.304 123.506 41.004 123.506 40.404Z" fill="#04060F"/>
<path d="M134.652 49.872H131.952V46.128H134.184C134.736 46.128 135.168 46.032 135.48 45.84C135.816 45.672 136.068 45.324 136.236 44.796L136.416 44.076H134.292L129.828 27.264H135.048L137.424 39.648L139.584 27.264H144.66L140.448 45.516C140.04 46.956 139.38 48.036 138.468 48.756C137.58 49.5 136.308 49.872 134.652 49.872Z" fill="#04060F"/>
<path d="M155.387 30.9V26.616C155.387 26.016 155.063 25.716 154.415 25.716H151.463V31.8H154.415C155.063 31.8 155.387 31.5 155.387 30.9ZM155.387 40.656V36.192C155.387 35.88 155.315 35.664 155.171 35.544C155.027 35.4 154.775 35.328 154.415 35.328H151.463V41.556H154.415C155.063 41.556 155.387 41.256 155.387 40.656ZM146.387 22.188H155.891C158.939 22.188 160.463 23.508 160.463 26.148V30.18C160.463 31.956 159.923 33.072 158.843 33.528C159.923 33.936 160.463 34.968 160.463 36.624V41.088C160.463 43.752 158.939 45.084 155.891 45.084H146.387V22.188Z" fill="#04060F"/>
<path d="M167.648 27.264H171.932C173.516 27.264 174.644 27.612 175.316 28.308C176.012 28.98 176.36 29.964 176.36 31.26V41.088C176.36 42.384 176.012 43.38 175.316 44.076C174.644 44.748 173.516 45.084 171.932 45.084H167.648C166.064 45.084 164.924 44.748 164.228 44.076C163.556 43.38 163.22 42.384 163.22 41.088V31.26C163.22 29.964 163.556 28.98 164.228 28.308C164.924 27.612 166.064 27.264 167.648 27.264ZM171.428 40.584V31.764C171.428 31.164 171.104 30.864 170.456 30.864H169.124C168.476 30.864 168.152 31.164 168.152 31.764V40.584C168.152 41.184 168.476 41.484 169.124 41.484H170.456C171.104 41.484 171.428 41.184 171.428 40.584Z" fill="#04060F"/>
<path d="M183.468 27.264H187.752C189.336 27.264 190.464 27.612 191.136 28.308C191.832 28.98 192.18 29.964 192.18 31.26V41.088C192.18 42.384 191.832 43.38 191.136 44.076C190.464 44.748 189.336 45.084 187.752 45.084H183.468C181.884 45.084 180.744 44.748 180.048 44.076C179.376 43.38 179.04 42.384 179.04 41.088V31.26C179.04 29.964 179.376 28.98 180.048 28.308C180.744 27.612 181.884 27.264 183.468 27.264ZM187.248 40.584V31.764C187.248 31.164 186.924 30.864 186.276 30.864H184.944C184.296 30.864 183.972 31.164 183.972 31.764V40.584C183.972 41.184 184.296 41.484 184.944 41.484H186.276C186.924 41.484 187.248 41.184 187.248 40.584Z" fill="#04060F"/>
<path d="M210.772 27.264H211.636C214.444 27.264 215.848 28.596 215.848 31.26V45.084H210.844V31.944C210.844 31.344 210.52 31.044 209.872 31.044H209.008C208.312 31.044 207.964 31.428 207.964 32.196V45.084H202.924V31.944C202.924 31.344 202.6 31.044 201.952 31.044H201.088C200.392 31.044 200.044 31.428 200.044 32.196V45.084H195.04V27.264H199.972V29.28C200.308 27.936 201.268 27.264 202.852 27.264H203.752C205.72 27.264 207.004 27.936 207.604 29.28C207.772 28.656 208.132 28.164 208.684 27.804C209.26 27.444 209.956 27.264 210.772 27.264Z" fill="#04060F"/>
<path d="M238.778 30.216H233.594V26.616C233.594 26.016 233.282 25.716 232.658 25.716H231.182C230.534 25.716 230.21 26.016 230.21 26.616V40.656C230.21 40.992 230.282 41.232 230.426 41.376C230.57 41.496 230.822 41.556 231.182 41.556H232.658C232.994 41.556 233.234 41.496 233.378 41.376C233.522 41.232 233.594 40.992 233.594 40.656V37.164H238.778V41.124C238.778 43.764 237.254 45.084 234.206 45.084H229.598C226.574 45.084 225.062 43.764 225.062 41.124V26.148C225.062 23.508 226.574 22.188 229.598 22.188H234.206C237.254 22.188 238.778 23.508 238.778 26.148V30.216Z" fill="#04060F"/>
<path d="M246.345 45.084H241.341V21H246.345V45.084Z" fill="#04060F"/>
<path d="M257.133 27.264H262.137V45.084H257.205V43.068C256.869 44.412 255.897 45.084 254.289 45.084H253.425C250.617 45.084 249.213 43.752 249.213 41.088V27.264H254.253V40.404C254.253 41.004 254.577 41.304 255.225 41.304H256.053C256.773 41.304 257.133 40.92 257.133 40.152V27.264Z" fill="#04060F"/>
<path d="M272.989 27.264H273.889C276.697 27.264 278.101 28.584 278.101 31.224V41.088C278.101 43.752 276.697 45.084 273.889 45.084H272.989C271.405 45.084 270.445 44.412 270.109 43.068V45.084H265.177V21H270.181V29.028C270.541 27.852 271.477 27.264 272.989 27.264ZM273.061 40.404V31.944C273.061 31.608 272.989 31.38 272.845 31.26C272.701 31.116 272.449 31.044 272.089 31.044H271.225C270.529 31.044 270.181 31.428 270.181 32.196V40.152C270.181 40.92 270.529 41.304 271.225 41.304H272.089C272.737 41.304 273.061 41.004 273.061 40.404Z" fill="#04060F"/>
<path d="M12.1195 54.8101C12.1195 54.8101 9.245 56.0988 7.90897 58.9984C6.57293 61.8577 7.58508 65.4822 7.58508 65.4822C7.58508 65.4822 15.2369 66.6098 20.8644 64.6768C26.492 62.7437 20.1762 59.1595 20.0952 58.7567C20.0142 58.354 12.1195 54.8101 12.1195 54.8101Z" fill="#AADDE4"/>
<path d="M0.823924 56.0585C1.63364 54.4878 4.38668 52.5145 7.50409 53.7629C10.662 55.0114 8.63769 59.1594 8.55672 61.2133C8.47575 63.2672 9.85226 65.7641 9.32595 67.0125C8.75915 68.261 5.11542 69.7108 3.29356 65.603C1.39073 61.4549 -0.0262781 57.6693 0.823924 56.0585Z" fill="#9F541F"/>
<path d="M8.55672 54.6089C8.55672 54.6089 9.40693 53.5215 9.16401 52.555C8.88061 51.5885 8.03041 51.1858 7.4636 51.4274C6.8968 51.669 5.96563 52.8772 6.69437 53.7632C7.38263 54.6894 8.55672 54.6089 8.55672 54.6089Z" fill="#9F541F"/>
<path d="M6.20864 53.9645C6.20864 53.9645 6.93739 53.1993 6.49204 52.3133C6.0467 51.4273 4.99407 51.3065 4.6297 52.1522C4.26532 52.998 4.87261 53.884 5.07504 53.9645C5.23698 54.0048 6.20864 53.9645 6.20864 53.9645Z" fill="#9F541F"/>
<path d="M4.34612 54.2064C4.34612 54.2064 4.9939 53.5218 4.58904 52.7566C4.18418 51.9914 3.29349 51.8706 2.9696 52.5955C2.64572 53.3204 3.21252 54.1259 3.37446 54.2064C3.53641 54.2467 4.34612 54.2064 4.34612 54.2064Z" fill="#9F541F"/>
<path d="M3.13169 54.9713C3.13169 54.9713 3.61752 54.1658 3.05071 53.5214C2.48391 52.8771 1.55274 52.9979 1.43128 53.7631C1.26934 54.5283 1.99808 55.1726 2.16003 55.1726C2.32197 55.2129 3.13169 54.9713 3.13169 54.9713Z" fill="#9F541F"/>
<path d="M1.71467 56.1392C1.71467 56.1392 2.2005 55.3338 1.6337 54.6894C1.0669 54.0451 0.135724 54.1659 0.0142666 54.931C-0.107191 55.6962 0.581068 56.3809 0.783497 56.3809C0.904955 56.3809 1.71467 56.1392 1.71467 56.1392Z" fill="#9F541F"/>
<path d="M34.8725 41.8828C34.8725 41.8828 37.666 50.9038 37.1802 57.7904C36.6943 64.6769 22.0385 68.4222 16.7348 62.5425C11.4312 56.6627 14.2247 51.5079 14.2247 51.5079L16.7348 43.1313L17.8279 42.0842L34.8725 41.8828Z" fill="#AADDE4"/>
<path d="M15.9252 40.0303C15.9252 40.0303 13.577 41.3593 13.1317 42.7285C12.7268 44.138 14.5487 50.2594 14.5487 50.2594L17.1803 45.6281L22.8888 44.1783L17.1803 42.2855L15.9252 40.0303Z" fill="#AADDE4"/>
<path d="M13.2531 63.1465C13.2531 63.1465 9.64988 66.5696 7.09927 66.5696C7.09927 66.5696 6.33004 67.5362 7.5851 67.8986C8.84016 68.2611 11.3503 66.6099 11.3503 66.6099C11.3503 66.6099 9.97377 67.9389 8.84016 68.543C7.74705 69.1471 9.04259 69.8317 10.0547 69.4692C11.0669 69.1068 12.4434 67.4959 12.6053 67.0529C12.6053 67.0529 11.8361 68.7041 11.3503 69.5901C10.824 70.4761 12.4839 70.8385 13.2531 69.9928C14.0223 69.1068 14.3462 66.8113 14.3462 66.8113C14.3462 66.8113 14.3058 69.8317 14.5082 70.476C14.7106 71.1204 16.0062 71.2815 16.1276 70.1539C16.2491 69.0262 16.1276 66.8918 16.1276 66.8918C16.1276 66.8918 16.2896 66.0058 16.8159 66.4085C17.3422 66.8113 17.3017 68.0194 18.2734 68.4222C19.245 68.8249 20.2572 68.5832 20.3786 68.2208C20.5001 67.8181 19.9738 67.0932 19.9738 67.0932C19.9738 67.0932 18.7187 66.6099 18.5972 65.7642C18.4758 64.9185 18.6782 63.7103 17.9495 63.1868C17.1802 62.6632 14.913 61.8981 14.5487 62.1397C14.2653 62.341 13.2531 63.1465 13.2531 63.1465Z" fill="#9F541F"/>
<path d="M13.1318 42.7285C13.1318 42.7285 9.04275 54.8102 13.1318 63.3076C13.1318 63.3076 16.6541 64.4353 18.4355 63.3076C18.4355 63.3076 24.0225 57.8709 22.8484 44.1783L13.1318 42.7285Z" fill="#AADDE4"/>
<path d="M50.1762 33.9894C50.1762 33.9894 51.0264 31.3315 49.6499 29.7609C49.6499 29.7609 50.5001 28.3916 51.3098 29.3984C52.1195 30.4052 52.5244 31.3315 52.2815 32.1772L56.0062 29.6803C56.0062 29.6803 57.5042 29.197 57.3827 30.7274L54.3867 32.9021L58.5568 31.6134C58.5568 31.6134 59.9333 32.0966 58.8807 33.1034L55.1965 34.3922L58.8807 34.5935C58.8807 34.5935 59.6499 35.3184 58.6782 35.9628L55.075 36.0031L57.8685 37.2918C57.8685 37.2918 58.3948 37.8153 57.5042 38.2986L53.6985 37.1307C53.6985 37.1307 51.9576 38.9027 50.4596 37.6945C48.9616 36.5266 50.1762 33.9894 50.1762 33.9894Z" fill="#9F541F"/>
<path d="M35.9252 38.8219C35.9252 38.8219 44.3463 33.9892 50.5406 34.5933C50.5406 34.5933 52.403 35.8417 52.241 38.0567C52.241 38.0567 47.4637 45.346 36.1276 46.8763L32.2815 42.8088L35.9252 38.8219Z" fill="#AADDE4"/>
<path d="M36.492 54.8105C36.492 54.8105 39.3665 56.0993 40.7025 58.9989C42.0385 61.8582 41.0264 65.4827 41.0264 65.4827C41.0264 65.4827 33.3746 66.6103 27.747 64.6773C22.1195 62.7442 28.4353 59.1599 28.5163 58.7572C28.5972 58.3142 36.492 54.8105 36.492 54.8105Z" fill="#AADDE4"/>
<path d="M47.7876 56.0589C46.9779 54.4883 44.2248 52.515 41.1074 53.7634C37.9495 55.0119 39.9738 59.1599 40.0548 61.2138C40.1358 63.2677 38.7592 65.7646 39.2855 67.013C39.8523 68.2614 43.4961 69.7112 45.3179 65.6035C47.1803 61.4554 48.6378 57.6698 47.7876 56.0589Z" fill="#9F541F"/>
<path d="M40.0547 54.5689C40.0547 54.5689 39.2045 53.4815 39.4475 52.515C39.7309 51.5484 40.5811 51.1457 41.1479 51.3873C41.7147 51.5887 42.6458 52.8372 41.9171 53.7231C41.2288 54.6897 40.0547 54.5689 40.0547 54.5689Z" fill="#9F541F"/>
<path d="M42.4031 53.9244C42.4031 53.9244 41.6744 53.1593 42.1197 52.2733C42.5651 51.3873 43.6177 51.2665 43.9821 52.1122C44.3465 52.9579 43.7392 53.8439 43.5367 53.9244C43.3343 54.005 42.4031 53.9244 42.4031 53.9244Z" fill="#9F541F"/>
<path d="M44.2247 54.2064C44.2247 54.2064 43.5769 53.5218 43.9817 52.7566C44.3866 51.9914 45.2773 51.8706 45.6012 52.5955C45.9251 53.3204 45.3583 54.1259 45.1963 54.2064C45.0749 54.2467 44.2247 54.2064 44.2247 54.2064Z" fill="#9F541F"/>
<path d="M45.4799 54.9312C45.4799 54.9312 44.9941 54.1258 45.5609 53.4814C46.1277 52.837 47.0589 52.9579 47.1803 53.723C47.3018 54.4882 46.6135 55.1728 46.4111 55.1728C46.2087 55.1728 45.4799 54.9312 45.4799 54.9312Z" fill="#9F541F"/>
<path d="M46.8969 56.0992C46.8969 56.0992 46.4111 55.2937 46.9779 54.6494C47.5447 54.005 48.4759 54.1258 48.5973 54.891C48.7188 55.6562 48.0305 56.3408 47.8281 56.3408C47.7066 56.3811 46.8969 56.0992 46.8969 56.0992Z" fill="#9F541F"/>
<path d="M28.7995 42.8094C28.7995 42.8094 28.2732 45.9507 24.589 46.1923C20.9048 46.4339 19.7307 42.3262 19.7307 42.3262L28.7995 42.8094Z" fill="#D3B079"/>
<path d="M24.6702 44.2186C35.8054 44.2186 44.8322 35.2394 44.8322 24.163C44.8322 13.0866 35.8054 4.10742 24.6702 4.10742C13.5351 4.10742 4.5083 13.0866 4.5083 24.163C4.5083 35.2394 13.5351 44.2186 24.6702 44.2186Z" fill="#9F541F"/>
<path d="M5.8037 20.6193C5.8037 20.6193 1.75512 19.8138 1.55269 24.0021C1.30977 28.1905 6.20856 29.9624 6.20856 29.9624L5.8037 20.6193Z" fill="#9F541F"/>
<path d="M44.1438 20.3776C44.1438 20.3776 48.1924 19.5721 48.3948 23.7604C48.5973 27.9488 43.6985 29.7207 43.6985 29.7207L44.1438 20.3776Z" fill="#9F541F"/>
<path d="M19.1234 20.1362C19.1234 20.1362 21.3096 22.6331 20.257 25.7743C19.1234 29.1169 12.6861 26.4589 12.9291 21.7874C12.9291 21.7874 12.8886 19.2099 14.3056 18.4448C15.7226 17.7199 18.2732 18.6864 19.1234 20.1362Z" fill="white"/>
<path d="M19.6902 21.0624C19.6902 21.0624 18.3542 18.5253 16.1275 18.6461C13.9007 18.7669 12.4028 21.0221 13.5769 24.4453C13.5769 24.4453 12.5647 23.4788 12.2813 22.029C12.0384 20.7402 12.3218 18.8877 13.7793 18.1225C17.3825 16.3103 19.6902 21.0624 19.6902 21.0624Z" fill="#D3B079"/>
<path d="M20.2572 24.123C20.2572 25.6936 19.1641 26.9823 17.8281 26.9823C16.492 26.9823 15.3989 25.6936 15.3989 24.123C15.3989 22.5524 16.492 21.2637 17.8281 21.2637C19.1641 21.2637 20.2572 22.5524 20.2572 24.123Z" fill="#04060F"/>
<path d="M29.9333 20.1362C29.9333 20.1362 27.7471 22.6331 28.7997 25.7743C29.9333 29.1169 36.3706 26.4589 36.1277 21.7874C36.1277 21.7874 36.1682 19.2099 34.7511 18.4448C33.3341 17.7199 30.7835 18.6864 29.9333 20.1362Z" fill="white"/>
<path d="M29.3262 21.0624C29.3262 21.0624 30.6622 18.5253 32.8889 18.6461C35.1156 18.7669 36.6136 21.0221 35.4395 24.4453C35.4395 24.4453 36.4517 23.4788 36.7351 22.029C36.978 20.7402 36.6946 18.8877 35.2371 18.1225C31.6339 16.3103 29.3262 21.0624 29.3262 21.0624Z" fill="#D3B079"/>
<path d="M28.7998 24.123C28.7998 25.6936 29.8929 26.9823 31.229 26.9823C32.565 26.9823 33.6581 25.6936 33.6581 24.123C33.6581 22.5524 32.565 21.2637 31.229 21.2637C29.8929 21.2637 28.7998 22.5524 28.7998 24.123Z" fill="#04060F"/>
<path d="M30.3787 25.2104C30.1358 25.2104 29.9333 25.4521 29.9333 25.734C29.9333 26.0159 30.1358 26.2575 30.3787 26.2575" fill="white"/>
<path d="M31.6742 31.8552C31.6742 31.8552 22.8483 33.305 18.0305 31.8149C18.0305 31.8149 18.8402 38.1377 24.0224 38.3793C29.8524 38.6612 31.6742 31.8552 31.6742 31.8552Z" fill="#5C2849"/>
<path d="M27.3827 7.61127C27.3827 7.61127 22.9697 7.61127 22.9697 5.15466C22.9697 2.69805 26.0871 1.97315 27.3827 2.85914C27.3827 2.85914 23.3746 -2.33598 19.9333 1.3288C16.492 4.99357 20.4596 10.5109 27.3827 7.61127Z" fill="#FC638B"/>
</svg>
